<svg width="577" height="577" viewBox="0 0 577 577" fill="none" xmlns="http://www.w3.org/2000/svg">
<path d="M496.566 334.383V383.324C496.566 387.578 494.876 391.658 491.868 394.667C488.86 397.675 484.78 399.365 480.526 399.365H305.037C300.785 399.362 296.708 397.67 293.702 394.663C290.696 391.655 289.008 387.576 289.008 383.324V341.965L267.151 319.012L480.479 318.354C482.589 318.346 484.68 318.755 486.631 319.558C488.583 320.36 490.356 321.539 491.851 323.028C493.346 324.518 494.531 326.287 495.341 328.236C496.15 330.184 496.566 332.273 496.566 334.383Z" fill="#F5F5F5"/>
<path d="M314.869 348L474.121 347.262L474.098 342.369L314.857 343.107L314.869 348Z" fill="#E6E6E6"/>
<path d="M314.869 364.099L474.121 363.372L474.098 358.479L314.857 359.206L314.869 364.099Z" fill="#E6E6E6"/>
<path d="M377.846 374.607L314.839 374.915L314.863 379.808L377.87 379.5L377.846 374.607Z" fill="#E6E6E6"/>
<path d="M185.552 53.7533H289.054C290.266 53.7533 291.467 53.9921 292.587 54.4561C293.707 54.92 294.725 55.6 295.582 56.4573C296.439 57.3146 297.119 58.3323 297.583 59.4524C298.047 60.5725 298.286 61.773 298.286 62.9853V113.657C298.286 116.106 297.313 118.454 295.582 120.185C293.851 121.917 291.502 122.889 289.054 122.889H201.223C198.774 122.889 196.426 121.917 194.695 120.185C192.964 118.454 191.991 116.106 191.991 113.657V60.1465L185.552 53.7533Z" fill="#F5F5F5"/>
<path d="M315.584 145.912V164.099C315.584 165.323 316.071 166.497 316.936 167.363C317.802 168.228 318.976 168.715 320.2 168.715H421.822C423.046 168.715 424.22 168.228 425.086 167.363C425.951 166.497 426.438 165.323 426.438 164.099V154.163L438.105 141.677L320.212 141.296C319.605 141.294 319.003 141.413 318.442 141.644C317.881 141.875 317.37 142.215 316.94 142.644C316.511 143.072 316.17 143.582 315.937 144.143C315.704 144.703 315.584 145.305 315.584 145.912Z" fill="#F0F0F0"/>
<path d="M247.083 109.734V142.196C247.085 143.593 246.811 144.976 246.277 146.267C245.744 147.558 244.961 148.731 243.974 149.719C242.987 150.707 241.815 151.491 240.525 152.026C239.234 152.56 237.851 152.836 236.455 152.836H120.016C118.619 152.836 117.236 152.56 115.946 152.026C114.656 151.491 113.484 150.707 112.497 149.719C111.51 148.731 110.727 147.558 110.193 146.267C109.66 144.976 109.386 143.593 109.388 142.196V114.777L94.9281 99.5441L236.42 99.1055C237.819 99.101 239.204 99.3725 240.498 99.9046C241.791 100.437 242.967 101.219 243.958 102.206C244.948 103.194 245.734 104.367 246.271 105.659C246.807 106.95 247.083 108.335 247.083 109.734Z" fill="#E0E0E0"/>
<path d="M126.582 118.77L232.196 118.285L232.185 115.042L126.571 115.527L126.582 118.77Z" fill="#F0F0F0"/>
<path d="M126.582 129.456L232.196 128.96L232.185 125.717L126.571 126.201L126.582 129.456Z" fill="#F0F0F0"/>
<path d="M168.341 136.421L126.556 136.625L126.571 139.868L168.357 139.664L168.341 136.421Z" fill="#F0F0F0"/>
<path d="M75.5293 216.86V265.812C75.5293 267.918 75.9443 270.004 76.7506 271.949C77.5568 273.895 78.7385 275.662 80.2282 277.151C81.7179 278.639 83.4863 279.82 85.4323 280.625C87.3784 281.429 89.464 281.843 91.5699 281.841H267.059C269.165 281.843 271.25 281.429 273.196 280.625C275.142 279.82 276.911 278.639 278.4 277.151C279.89 275.662 281.072 273.895 281.878 271.949C282.684 270.004 283.099 267.918 283.099 265.812V224.453L304.945 201.5L91.6161 200.796C89.5038 200.79 87.4111 201.201 85.4581 202.006C83.5051 202.811 81.7303 203.993 80.2356 205.486C78.7409 206.979 77.5557 208.752 76.7481 210.703C75.9405 212.655 75.5263 214.747 75.5293 216.86Z" fill="#F0F0F0"/>
<path d="M257.227 230.477L97.9746 229.75L97.9977 224.857L257.238 225.584L257.227 230.477Z" fill="#E6E6E6"/>
<path d="M257.227 246.587L97.9746 245.848L97.9977 240.955L257.238 241.694L257.227 246.587Z" fill="#E6E6E6"/>
<path d="M194.223 257.063L194.199 261.956L257.207 262.264L257.23 257.371L194.223 257.063Z" fill="#E6E6E6"/>
<path d="M420.044 101.521C424.873 90.7851 420.085 78.1675 409.349 73.3383C398.614 68.5091 385.996 73.2971 381.167 84.0325C376.338 94.7679 381.126 107.386 391.861 112.215C402.597 117.044 415.214 112.256 420.044 101.521Z" fill="#F5F5F5"/>
<path d="M393.249 87.404C394.045 87.3347 394.783 88.2233 394.876 89.3888C394.968 90.5544 394.403 91.5584 393.595 91.6276C392.787 91.6968 392.048 90.7967 391.956 89.6312C391.864 88.4656 392.441 87.4617 393.249 87.404Z" fill="#E0E0E0"/>
<path d="M395.118 82.0032C393.834 82.162 392.565 82.4205 391.321 82.7764C390.144 83.3146 389.009 83.9435 387.929 84.6574C388.712 83.5334 389.821 82.6764 391.107 82.2019C392.392 81.7274 393.792 81.658 395.118 82.0032Z" fill="#E0E0E0"/>
<path d="M406.797 87.127C405.977 87.127 405.285 88.004 405.239 89.1811C405.192 90.3582 405.804 91.316 406.623 91.3506C407.443 91.3853 408.124 90.4621 408.17 89.2965C408.216 88.131 407.604 87.1501 406.797 87.127Z" fill="#E0E0E0"/>
<path d="M404.696 81.8071C406.001 81.4031 407.397 81.4077 408.699 81.8203C410 82.2328 411.145 83.0336 411.978 84.1151C410.874 83.4393 409.716 82.8564 408.516 82.3725C407.259 82.089 405.982 81.9 404.696 81.8071Z" fill="#E0E0E0"/>
<path d="M411.113 92.5508C411.121 92.9408 411.071 93.3299 410.962 93.7048C410.691 94.7302 410.254 95.7045 409.67 96.5898C408.834 97.9221 407.73 99.0657 406.427 99.9479C404.836 101.074 402.959 101.727 401.012 101.829C399.065 101.931 397.13 101.479 395.43 100.525C394.039 99.7786 392.817 98.7532 391.841 97.513C391.189 96.6854 390.674 95.7579 390.317 94.7665C390.156 94.4022 390.066 94.0105 390.052 93.6125C390.606 94.8958 391.324 96.1021 392.187 97.2014C393.143 98.351 394.32 99.2968 395.649 99.9826C397.262 100.857 399.086 101.269 400.918 101.173C402.751 101.077 404.521 100.478 406.035 99.4402C407.298 98.6204 408.384 97.5573 409.231 96.3128C410.015 95.1434 410.647 93.8793 411.113 92.5508Z" fill="#E0E0E0"/>
<path d="M107.726 332.352H110.784L117.523 323.374V317.477C117.523 317.477 122.289 317.2 121.736 324.92C121.182 332.641 121.736 330.69 121.736 330.69C121.736 330.69 131.856 330.69 132.699 331.567C133.31 332.179 133.587 341.803 133.691 347.019C133.742 348.302 133.356 349.564 132.597 350.599C131.839 351.634 130.752 352.382 129.513 352.72C129.135 352.809 128.748 352.856 128.359 352.859C125.959 352.801 113.092 350.816 113.092 350.816H107.726V332.352Z" fill="#F0F0F0"/>
<path d="M98.8978 330.702L100.79 350.885H106.076V331.106L98.8978 330.702Z" fill="#F0F0F0"/>
<path d="M531.994 156.852C531.266 156.072 530.263 155.608 529.198 155.558C528.132 155.509 527.09 155.878 526.293 156.586C525.502 157.22 524.859 158.019 524.41 158.929C523.961 159.838 523.718 160.835 523.697 161.849C523.509 160.834 523.102 159.872 522.504 159.031C521.906 158.19 521.132 157.489 520.235 156.979C519.344 156.378 518.254 156.148 517.196 156.337C516.138 156.527 515.195 157.121 514.569 157.994C513.892 159.192 513.686 160.599 513.992 161.941C514.192 163.294 514.758 164.567 515.63 165.622C518.827 169.015 520.477 169.557 524.435 171.854C528.036 169.061 529.201 168.392 531.902 164.549C532.63 163.389 533.029 162.052 533.056 160.683C533.185 159.319 532.807 157.955 531.994 156.852Z" fill="#F0F0F0"/>
<path d="M341.838 468.212L221.729 467.647C218.294 467.633 214.896 466.943 211.728 465.616C208.559 464.288 205.684 462.35 203.265 459.91C200.846 457.471 198.932 454.58 197.631 451.4C196.33 448.221 195.669 444.817 195.684 441.382L196.965 140.269C197.004 133.335 199.794 126.701 204.72 121.822C209.647 116.943 216.308 114.218 223.241 114.246L343.35 114.8C350.287 114.834 356.927 117.62 361.811 122.547C366.695 127.474 369.423 134.139 369.395 141.076L368.126 442.155C368.092 449.096 365.305 455.739 360.375 460.625C355.446 465.511 348.778 468.24 341.838 468.212Z" fill="#263238"/>
<path d="M343.176 125.163L319.889 125.059C319.129 125.071 318.379 125.233 317.682 125.536C316.985 125.838 316.355 126.275 315.827 126.822C315.3 127.369 314.885 128.015 314.608 128.722C314.331 129.429 314.196 130.185 314.211 130.944V135.168C314.226 135.928 314.091 136.683 313.814 137.39C313.537 138.098 313.122 138.743 312.595 139.29C312.067 139.837 311.437 140.274 310.74 140.577C310.043 140.879 309.293 141.041 308.533 141.053L263.112 140.846C262.351 140.828 261.601 140.66 260.906 140.351C260.21 140.042 259.583 139.598 259.059 139.046C258.536 138.494 258.127 137.843 257.856 137.132C257.585 136.421 257.457 135.663 257.48 134.903V130.679C257.503 129.918 257.376 129.161 257.105 128.45C256.834 127.738 256.425 127.088 255.901 126.536C255.378 125.983 254.75 125.54 254.055 125.231C253.359 124.922 252.61 124.754 251.849 124.736H243.655L223.31 124.632C220.904 124.621 218.519 125.085 216.291 125.996C214.064 126.907 212.038 128.248 210.329 129.942C208.619 131.636 207.261 133.651 206.33 135.87C205.399 138.089 204.915 140.47 204.904 142.877L203.658 436.777C203.639 441.637 205.551 446.305 208.971 449.756C212.392 453.207 217.043 455.159 221.903 455.184L341.769 455.738C344.175 455.748 346.56 455.285 348.788 454.374C351.015 453.463 353.041 452.122 354.75 450.427C356.46 448.733 357.818 446.719 358.749 444.5C359.68 442.28 360.164 439.899 360.175 437.493L361.421 143.592C361.433 141.184 360.971 138.797 360.061 136.568C359.15 134.338 357.81 132.31 356.116 130.599C354.422 128.888 352.407 127.527 350.187 126.594C347.967 125.661 345.585 125.175 343.176 125.163Z" fill="white"/>
<path d="M277.295 418.625C277.295 419.123 277.147 419.609 276.871 420.023C276.594 420.436 276.201 420.759 275.742 420.949C275.282 421.14 274.776 421.189 274.288 421.092C273.8 420.995 273.352 420.756 273 420.404C272.648 420.052 272.409 419.604 272.312 419.116C272.214 418.628 272.264 418.122 272.455 417.662C272.645 417.203 272.968 416.81 273.381 416.533C273.795 416.257 274.281 416.109 274.779 416.109C275.445 416.112 276.083 416.378 276.554 416.85C277.026 417.321 277.292 417.959 277.295 418.625Z" fill="#455A64"/>
<path d="M286.85 418.625C286.85 419.123 286.702 419.609 286.426 420.023C286.149 420.436 285.756 420.759 285.297 420.949C284.837 421.14 284.331 421.189 283.843 421.092C283.355 420.995 282.907 420.756 282.555 420.404C282.203 420.052 281.964 419.604 281.867 419.116C281.77 418.628 281.819 418.122 282.01 417.662C282.2 417.203 282.523 416.81 282.936 416.533C283.35 416.257 283.837 416.109 284.334 416.109C285 416.112 285.638 416.378 286.11 416.85C286.581 417.321 286.847 417.959 286.85 418.625Z" fill="#455A64"/>
<path d="M296.405 418.625C296.405 419.123 296.257 419.609 295.981 420.023C295.704 420.436 295.312 420.759 294.852 420.949C294.392 421.14 293.886 421.189 293.398 421.092C292.91 420.995 292.462 420.756 292.11 420.404C291.758 420.052 291.519 419.604 291.422 419.116C291.325 418.628 291.375 418.122 291.565 417.662C291.755 417.203 292.078 416.81 292.491 416.533C292.905 416.257 293.392 416.109 293.889 416.109C294.555 416.112 295.194 416.378 295.665 416.85C296.136 417.321 296.402 417.959 296.405 418.625Z" fill="#455A64"/>
<path d="M227.234 189.836C227.234 189.836 227.234 189.629 227.234 189.202C227.322 187.527 227.913 185.919 228.93 184.586C229.773 183.438 230.887 182.518 232.173 181.908C233.814 181.179 235.613 180.881 237.401 181.043H259.234L351.554 181.228H352.235L351.762 181.724L339.934 194.164L340.014 193.968V214.567C340.097 215.939 339.996 217.317 339.714 218.663C339.36 220.012 338.692 221.258 337.764 222.298C336.855 223.337 335.717 224.15 334.441 224.676C333.171 225.175 331.811 225.407 330.448 225.357H292.781L242.34 225.253H237.032C235.333 225.383 233.629 225.077 232.081 224.364C230.673 223.684 229.471 222.643 228.595 221.348C227.72 220.053 227.202 218.55 227.096 216.99C227.096 211.22 227.096 206.362 227.096 202.334C227.096 198.307 227.096 195.214 227.153 193.102C227.153 192.052 227.153 191.256 227.153 190.69C227.153 190.125 227.153 189.871 227.153 189.871C227.153 189.871 227.153 190.148 227.153 190.69C227.153 191.233 227.153 192.052 227.153 193.102C227.153 195.237 227.153 198.353 227.153 202.334C227.153 206.316 227.153 211.278 227.234 216.967C227.345 218.463 227.849 219.904 228.696 221.142C229.544 222.38 230.703 223.373 232.058 224.018C233.552 224.701 235.198 224.987 236.835 224.849H242.34L292.839 224.791H322.658H330.482C331.767 224.844 333.048 224.628 334.244 224.156C335.438 223.665 336.504 222.907 337.36 221.941C338.221 220.969 338.838 219.806 339.161 218.548C339.433 217.251 339.53 215.924 339.449 214.601V193.864L339.53 193.783L351.37 181.343L351.589 181.839L259.269 181.447L243.759 181.366H237.424C235.676 181.194 233.913 181.468 232.3 182.162C231.034 182.747 229.932 183.635 229.092 184.747C228.47 185.559 227.993 186.473 227.684 187.448C227.461 188.228 227.31 189.028 227.234 189.836Z" fill="#455A64"/>
<path d="M325.682 197.222L239.397 196.818L239.409 194.164L325.682 194.568V197.222Z" fill="#455A64"/>
<path d="M325.682 205.946L239.397 205.542L239.409 202.888L325.682 203.292V205.946Z" fill="#455A64"/>
<path d="M291.535 211.619L291.522 214.274L325.657 214.44L325.67 211.786L291.535 211.619Z" fill="#455A64"/>
<path d="M344.538 248.275V274.817C344.538 277.119 343.624 279.328 341.997 280.957C340.37 282.586 338.163 283.503 335.86 283.506H240.77C238.466 283.506 236.256 282.591 234.626 280.961C232.996 279.331 232.081 277.121 232.081 274.817V252.394L220.252 239.954L335.814 239.596C336.957 239.59 338.091 239.81 339.149 240.244C340.207 240.677 341.169 241.315 341.98 242.122C342.791 242.928 343.434 243.887 343.873 244.943C344.312 245.999 344.538 247.131 344.538 248.275Z" fill="#ED592A"/>
<path d="M246.102 255.66L332.387 255.256L332.375 252.602L246.09 253.006L246.102 255.66Z" fill="white"/>
<path d="M246.102 264.385L332.387 263.981L332.375 261.338L246.09 261.73L246.102 264.385Z" fill="white"/>
<path d="M280.208 270.074L246.073 270.241L246.086 272.895L280.221 272.728L280.208 270.074Z" fill="white"/>
<path d="M229.23 308.71C229.21 308.502 229.21 308.294 229.23 308.086C229.3 307.463 229.501 306.861 229.819 306.321C230.348 305.425 231.16 304.731 232.127 304.347C233.464 303.983 234.855 303.861 236.235 303.99H262.696L351.797 304.174H352.478L351.97 304.648L340.315 317.157L340.395 316.949V325.316C340.395 325.939 340.395 326.47 340.395 327.162C340.348 328.135 340.01 329.071 339.426 329.851C338.842 330.63 338.038 331.217 337.118 331.536C336.513 331.741 335.876 331.835 335.237 331.813H322.808H295.909L250.418 331.72H234.85C234.183 331.756 233.513 331.718 232.854 331.605C231.925 331.403 231.077 330.928 230.419 330.242C229.761 329.555 229.323 328.688 229.161 327.751C229.093 327.18 229.07 326.605 229.092 326.031C229.092 323.827 229.092 321.819 229.092 320.007C229.092 316.395 229.092 313.591 229.15 311.652C229.15 310.718 229.15 310.002 229.15 309.483C229.15 308.964 229.15 308.744 229.15 308.744C229.15 308.744 229.15 308.998 229.15 309.483C229.15 309.967 229.15 310.718 229.15 311.652C229.15 313.591 229.15 316.395 229.207 320.007C229.207 321.819 229.207 323.827 229.207 326.031C229.188 326.586 229.215 327.142 229.288 327.693C229.44 328.569 229.851 329.379 230.468 330.019C231.085 330.659 231.88 331.099 232.75 331.282C233.388 331.378 234.033 331.409 234.677 331.374H241.186H250.418L295.955 331.305H335.272C335.839 331.326 336.406 331.244 336.945 331.063C338.027 330.683 338.915 329.891 339.414 328.858C339.661 328.346 339.803 327.788 339.83 327.22C339.83 326.643 339.83 326.008 339.83 325.408V316.926L339.911 316.845L351.589 304.359L351.797 304.855L262.708 304.474L236.247 304.301C234.893 304.152 233.524 304.254 232.208 304.601C231.461 304.897 230.804 305.383 230.302 306.01C229.8 306.637 229.47 307.385 229.346 308.179C229.317 308.358 229.278 308.535 229.23 308.71Z" fill="#455A64"/>
<path d="M329.548 315.703L243.263 315.311L243.275 312.656L329.559 313.06L329.548 315.703Z" fill="#455A64"/>
<path d="M294.551 321.415L294.538 324.069L329.55 324.24L329.563 321.586L294.551 321.415Z" fill="#455A64"/>
<path d="M341.503 356.047V374.222C341.503 375.447 341.017 376.621 340.151 377.486C339.286 378.352 338.111 378.838 336.887 378.838H235.266C234.042 378.838 232.868 378.352 232.002 377.486C231.136 376.621 230.65 375.447 230.65 374.222V364.286L218.983 351.8L336.887 351.431C338.111 351.431 339.286 351.917 340.151 352.783C341.017 353.649 341.503 354.823 341.503 356.047Z" fill="#ED592A"/>
<path d="M241.197 363.04L327.482 362.648L327.47 359.993L241.186 360.397L241.197 363.04Z" fill="white"/>
<path d="M241.197 371.579L327.482 371.176L327.47 368.533L241.186 368.925L241.197 371.579Z" fill="white"/>
<path d="M480.583 155.478C488.059 155.478 494.12 149.418 494.12 141.942C494.12 134.466 488.059 128.406 480.583 128.406C473.107 128.406 467.047 134.466 467.047 141.942C467.047 149.418 473.107 155.478 480.583 155.478Z" fill="#ED592A"/>
<path opacity="0.5" d="M480.583 155.478C488.059 155.478 494.12 149.418 494.12 141.942C494.12 134.466 488.059 128.406 480.583 128.406C473.107 128.406 467.047 134.466 467.047 141.942C467.047 149.418 473.107 155.478 480.583 155.478Z" fill="white"/>
<path d="M476.094 138.065C476.602 138.065 477.064 138.607 477.11 139.346C477.156 140.084 476.775 140.719 476.256 140.742C475.737 140.765 475.287 140.199 475.24 139.461C475.194 138.722 475.575 138.088 476.094 138.065Z" fill="#263238"/>
<path d="M477.352 134.66C477.352 134.856 476.198 134.799 475.044 135.237C473.89 135.676 472.955 136.391 472.817 136.253C472.678 136.114 473.382 135.099 474.813 134.591C476.244 134.083 477.41 134.487 477.352 134.66Z" fill="#263238"/>
<path d="M487.161 140.176C487.011 140.292 486.284 139.507 485.119 139.392C483.953 139.276 483.076 139.865 482.961 139.726C482.845 139.588 483.053 139.392 483.434 139.126C483.96 138.796 484.581 138.65 485.199 138.711C485.816 138.778 486.39 139.055 486.826 139.496C487.15 139.842 487.23 140.119 487.161 140.176Z" fill="#263238"/>
<path d="M488.327 137.915C488.223 138.076 487.173 137.511 485.661 137.464C484.149 137.418 483.053 137.88 482.961 137.695C483.309 137.337 483.738 137.067 484.211 136.908C484.685 136.75 485.19 136.707 485.684 136.784C487.369 136.841 488.442 137.788 488.327 137.915Z" fill="#263238"/>
<path d="M487.369 141.677C487.376 142.612 487.076 143.524 486.515 144.273C485.925 145.26 485.097 146.083 484.105 146.666C483.114 147.249 481.992 147.573 480.843 147.609C479.693 147.644 478.554 147.39 477.528 146.87C476.503 146.35 475.625 145.58 474.975 144.631C474.361 143.924 474.006 143.028 473.971 142.092C474.368 142.898 474.831 143.67 475.356 144.4C475.999 145.223 476.827 145.883 477.773 146.327C478.719 146.77 479.757 146.984 480.801 146.951C481.845 146.919 482.867 146.64 483.784 146.139C484.7 145.638 485.486 144.927 486.076 144.065C486.563 143.3 486.994 142.502 487.369 141.677Z" fill="#263238"/>
<path d="M101.806 381.385C101.69 385.149 100.461 388.794 98.2744 391.859C96.0877 394.924 93.0413 397.272 89.5203 398.606C85.9994 399.94 82.1619 400.2 78.4931 399.354C74.8243 398.507 71.4888 396.592 68.9083 393.85C66.3277 391.108 64.618 387.663 63.9952 383.95C63.3724 380.236 63.8645 376.422 65.4093 372.988C66.9541 369.554 69.4822 366.655 72.6741 364.658C75.866 362.661 79.5784 361.655 83.3419 361.767C85.8428 361.842 88.3044 362.409 90.5861 363.435C92.8678 364.462 94.9248 365.928 96.6396 367.75C98.3543 369.572 99.6932 371.714 100.58 374.054C101.466 376.393 101.883 378.885 101.806 381.385Z" fill="#ED592A"/>
<path opacity="0.5" d="M101.806 381.385C101.69 385.149 100.461 388.794 98.2744 391.859C96.0877 394.924 93.0413 397.272 89.5203 398.606C85.9994 399.94 82.1619 400.2 78.4931 399.354C74.8243 398.507 71.4888 396.592 68.9083 393.85C66.3277 391.108 64.618 387.663 63.9952 383.95C63.3724 380.236 63.8645 376.422 65.4093 372.988C66.9541 369.554 69.4822 366.655 72.6741 364.658C75.866 362.661 79.5784 361.655 83.3419 361.767C85.8428 361.842 88.3044 362.409 90.5861 363.435C92.8678 364.462 94.9248 365.928 96.6396 367.75C98.3543 369.572 99.6932 371.714 100.58 374.054C101.466 376.393 101.883 378.885 101.806 381.385Z" fill="white"/>
<path d="M79.026 375.569C78.6893 375.13 78.1946 374.84 77.6472 374.76C77.0997 374.681 76.5428 374.818 76.0948 375.142C75.6614 375.435 75.2959 375.817 75.0232 376.263C74.7504 376.709 74.5767 377.208 74.5139 377.727C74.4654 377.198 74.3044 376.686 74.0417 376.224C73.779 375.762 73.4206 375.362 72.9906 375.05C72.5582 374.703 72.009 374.537 71.4569 374.584C70.9048 374.631 70.392 374.889 70.0248 375.304C69.6217 375.886 69.449 376.598 69.5401 377.3C69.579 378.005 69.8061 378.687 70.1979 379.274C71.3698 380.74 72.8064 381.973 74.4331 382.909C76.0367 382.061 77.4596 380.908 78.6221 379.516C79.0463 378.954 79.3131 378.288 79.3953 377.589C79.5296 376.893 79.3978 376.172 79.026 375.569Z" fill="#ED592A"/>
<path d="M95.7821 376.042C95.4455 375.603 94.9497 375.313 94.4015 375.235C93.8533 375.157 93.2964 375.298 92.8509 375.627C92.4143 375.916 92.0464 376.297 91.7732 376.744C91.5001 377.19 91.3283 377.692 91.27 378.212C91.2215 377.683 91.0605 377.17 90.7978 376.709C90.5351 376.247 90.1767 375.847 89.7467 375.535C89.3154 375.185 88.7656 375.017 88.2126 375.064C87.6597 375.111 87.1465 375.371 86.7809 375.789C86.3758 376.37 86.2029 377.082 86.2962 377.785C86.3293 378.491 86.557 379.174 86.954 379.758C88.1259 381.224 89.5625 382.457 91.1892 383.393C92.7878 382.538 94.2094 381.387 95.3782 380.001C95.8028 379.434 96.0696 378.765 96.1514 378.062C96.2834 377.366 96.1518 376.646 95.7821 376.042Z" fill="#ED592A"/>
<path d="M88.9504 385.494C88.7629 387.069 87.986 388.515 86.7759 389.541C85.5657 390.566 84.0121 391.096 82.4274 391.023C80.8427 390.95 79.3444 390.279 78.2338 389.147C77.1232 388.014 76.4827 386.503 76.441 384.917L88.9504 385.494Z" fill="white"/>
<path d="M439.212 503.052L436.904 490.865L415.036 494.743L418.21 513.011L419.583 512.861C425.688 512.134 450.464 508.349 454.272 506.352C458.577 504.125 439.212 503.052 439.212 503.052Z" fill="#ED592A"/>
<path d="M454.676 505.14C454.676 505.348 446.598 507.021 436.489 508.879C426.38 510.737 418.21 512.076 418.175 511.868C418.14 511.661 426.253 509.999 436.351 508.141C446.448 506.283 454.607 504.944 454.676 505.14Z" fill="#263238"/>
<path d="M440.055 505.452C439.859 505.383 439.893 504.713 440.251 503.998C440.609 503.282 441.105 502.844 441.278 502.948C441.451 503.052 441.278 503.652 440.92 504.321C440.563 504.99 440.251 505.533 440.055 505.452Z" fill="#263238"/>
<path d="M441.601 506.017C441.394 506.017 441.359 505.244 441.601 504.402C441.844 503.559 442.374 503.005 442.559 503.098C442.744 503.19 442.559 503.871 442.317 504.644C442.074 505.417 441.809 506.052 441.601 506.017Z" fill="#263238"/>
<path d="M424.672 510.576C424.591 510.657 424.21 510.391 423.633 509.941C422.918 509.346 422.145 508.824 421.325 508.383C420.582 507.976 419.749 507.762 418.902 507.76C418.221 507.76 417.806 507.979 417.748 507.875C417.69 507.772 418.048 507.425 418.833 507.229C419.847 507.027 420.901 507.186 421.81 507.679C422.687 508.151 423.47 508.781 424.118 509.537C424.534 510.068 424.776 510.506 424.672 510.576Z" fill="#263238"/>
<path d="M439.674 503.144C439.813 503.294 439.512 503.79 438.935 504.136C438.358 504.483 437.781 504.506 437.712 504.31C437.643 504.113 438.047 503.79 438.555 503.479C439.062 503.167 439.559 503.006 439.674 503.144Z" fill="#263238"/>
<path d="M439.143 502.048C439.143 502.255 438.647 502.532 437.908 502.682C437.17 502.832 436.558 502.775 436.535 502.567C436.512 502.359 437.066 502.082 437.758 501.944C438.451 501.805 439.085 501.852 439.143 502.048Z" fill="#263238"/>
<path d="M465.524 374.208C458.75 360.533 422.445 307.633 422.445 307.633L403.069 309.664V309.549L381.385 311.926L369.43 313.242L412.717 502.302L442.651 501.759L435.45 466.781C440.401 454.376 469.274 381.778 465.524 374.208ZM434.643 382.366L423.945 411.089L411.828 352.235L434.643 382.366Z" fill="#263238"/>
<path d="M410.628 220.31C410.351 218.337 411.413 210.132 411.413 210.132C411.413 210.132 418.948 209.578 419.652 202.146C420.356 194.714 420.437 177.508 420.437 177.508L406.97 170.377L391.541 181.293L387.548 191.679L392.81 204.581L392.649 208.851V218.625L410.628 220.31Z" fill="#FFBE9D"/>
<path d="M419.433 189.971C419.428 190.161 419.367 190.345 419.258 190.501C419.148 190.656 418.995 190.775 418.817 190.842C418.64 190.91 418.447 190.924 418.261 190.881C418.076 190.839 417.908 190.743 417.778 190.604C417.648 190.466 417.562 190.292 417.531 190.105C417.499 189.917 417.525 189.725 417.603 189.552C417.682 189.379 417.81 189.234 417.971 189.134C418.132 189.034 418.32 188.984 418.51 188.991C418.635 188.994 418.758 189.021 418.873 189.072C418.987 189.124 419.09 189.197 419.176 189.288C419.262 189.379 419.329 189.487 419.373 189.604C419.417 189.721 419.438 189.846 419.433 189.971Z" fill="#263238"/>
<path d="M419.502 188.968C419.375 189.094 418.683 188.471 417.667 188.379C416.652 188.287 415.855 188.76 415.752 188.621C415.648 188.483 415.832 188.333 416.179 188.114C416.643 187.834 417.186 187.712 417.725 187.767C418.261 187.812 418.767 188.031 419.167 188.391C419.468 188.679 419.56 188.921 419.502 188.968Z" fill="#263238"/>
<path d="M407.362 188.806C407.515 188.918 407.631 189.072 407.696 189.25C407.761 189.428 407.772 189.622 407.727 189.806C407.682 189.99 407.584 190.156 407.445 190.284C407.305 190.413 407.131 190.496 406.943 190.526C406.756 190.555 406.565 190.527 406.393 190.448C406.221 190.368 406.077 190.239 405.978 190.077C405.88 189.915 405.832 189.728 405.84 189.538C405.848 189.349 405.912 189.167 406.023 189.014C406.098 188.912 406.191 188.826 406.299 188.761C406.406 188.695 406.525 188.652 406.65 188.633C406.774 188.613 406.901 188.619 407.023 188.648C407.145 188.678 407.261 188.732 407.362 188.806Z" fill="#263238"/>
<path d="M408.112 188.61C407.985 188.725 407.304 188.102 406.277 188.021C405.25 187.94 404.465 188.402 404.362 188.252C404.258 188.102 404.442 187.975 404.789 187.756C405.253 187.475 405.795 187.35 406.335 187.398C406.876 187.446 407.386 187.669 407.789 188.033C408.089 188.31 408.181 188.552 408.112 188.61Z" fill="#263238"/>
<path d="M411.54 197.403C412.092 197.28 412.658 197.226 413.224 197.242C413.49 197.242 413.744 197.242 413.813 197.022C413.848 196.735 413.804 196.444 413.686 196.18C413.49 195.499 413.282 194.784 413.051 194.034C412.452 192.205 411.989 190.334 411.667 188.437C411.924 188.94 412.125 189.47 412.267 190.018C412.59 191.01 413.017 192.383 413.421 193.918C413.628 194.668 413.836 195.395 414.021 196.076C414.166 196.419 414.191 196.802 414.09 197.161C414.048 197.251 413.986 197.329 413.907 197.389C413.829 197.45 413.737 197.49 413.64 197.507C413.491 197.529 413.339 197.529 413.19 197.507C412.638 197.538 412.084 197.503 411.54 197.403Z" fill="#263238"/>
<path d="M408.124 198.257C407.097 197.542 410.928 200.069 413.028 200.127C412.636 200.643 412.079 201.011 411.449 201.168C410.82 201.326 410.156 201.263 409.566 200.992C407.431 199.988 408.124 198.257 408.124 198.257Z" fill="white"/>
<path d="M411.413 210.132C407.877 209.871 404.49 208.606 401.65 206.485C401.65 206.485 403.704 212.024 411.193 211.955L411.413 210.132Z" fill="#EB996E"/>
<path d="M393.687 193.757C393.687 193.757 393.583 193.837 393.399 193.941C393.138 194.063 392.842 194.084 392.568 193.999C392.142 193.765 391.786 193.421 391.538 193.003C391.291 192.585 391.16 192.108 391.16 191.622C391.108 191.078 391.179 190.53 391.368 190.018C391.415 189.816 391.512 189.63 391.649 189.475C391.786 189.32 391.959 189.201 392.152 189.129C392.276 189.085 392.411 189.087 392.533 189.133C392.656 189.18 392.758 189.268 392.822 189.383C392.914 189.556 392.879 189.695 392.914 189.695C392.949 189.695 393.052 189.579 392.983 189.325C392.938 189.17 392.84 189.035 392.706 188.944C392.616 188.882 392.515 188.839 392.408 188.817C392.301 188.795 392.19 188.795 392.083 188.817C391.826 188.885 391.59 189.016 391.398 189.2C391.206 189.384 391.065 189.614 390.987 189.868C390.751 190.437 390.656 191.054 390.71 191.668C390.716 192.235 390.889 192.788 391.207 193.258C391.525 193.728 391.974 194.094 392.498 194.311C392.67 194.351 392.849 194.351 393.022 194.311C393.194 194.271 393.354 194.192 393.491 194.08C393.687 193.872 393.71 193.768 393.687 193.757Z" fill="#EB996E"/>
<path d="M422.364 178.743C421.957 178.879 421.534 178.961 421.106 178.985C422.509 178.249 423.662 177.112 424.418 175.72C424.971 174.757 425.262 173.667 425.262 172.558C425.262 171.448 424.971 170.358 424.418 169.396C423.822 168.465 422.905 167.786 421.841 167.488C420.777 167.19 419.641 167.294 418.648 167.78C419.03 166.986 419.111 166.08 418.876 165.231C418.64 164.382 418.104 163.648 417.367 163.164C416.601 162.71 415.743 162.434 414.857 162.356C413.97 162.278 413.077 162.4 412.243 162.714C410.582 163.354 409.025 164.241 407.627 165.345C407.523 164.748 407.277 164.185 406.909 163.703C406.542 163.221 406.064 162.834 405.516 162.576C404.413 162.064 403.18 161.907 401.984 162.125C400.248 162.423 398.645 163.247 397.392 164.485C396.139 165.723 395.297 167.317 394.98 169.049C394.435 168.491 393.755 168.082 393.007 167.862C392.258 167.642 391.465 167.618 390.705 167.793C389.944 167.968 389.242 168.336 388.665 168.861C388.087 169.386 387.655 170.051 387.409 170.792C387.414 170.846 387.414 170.9 387.409 170.954C386.718 171.254 386.137 171.762 385.748 172.408C385.419 172.959 385.217 173.576 385.155 174.214C385.094 174.852 385.174 175.497 385.39 176.1C385.832 177.287 386.64 178.301 387.698 178.997C388.103 179.282 388.461 179.628 388.76 180.024C388.988 180.369 389.127 180.766 389.163 181.178C389.06 183.671 387.79 186.025 387.167 188.471C386.313 191.864 388.194 196.492 389.279 199.815C390.364 203.139 390.744 204.431 392.856 204.697L393.179 195.765C390.871 197.657 387.79 191.149 389.81 188.552C391.829 185.956 393.976 186.844 394.345 188.483C394.488 189.113 394.669 189.733 394.887 190.341H397.195L396.941 188.391C396.941 188.391 396.468 179.724 400.611 179.159C401.693 178.929 402.821 179.137 403.75 179.736C405.085 180.273 406.531 180.475 407.962 180.324C409.439 180.324 411.424 178.639 411.424 177.174C412.27 178.16 413.34 178.927 414.546 179.412C415.751 179.896 417.055 180.082 418.348 179.955C419.016 179.885 419.672 179.726 420.298 179.482C421.079 179.698 421.906 179.678 422.676 179.424C423.468 179.167 424.161 178.671 424.661 178.005C425.03 177.485 425.099 177.093 425.03 177.058C424.27 177.801 423.361 178.375 422.364 178.743ZM387.975 178.466C387.035 177.812 386.318 176.886 385.921 175.812C385.734 175.291 385.66 174.736 385.706 174.185C385.752 173.633 385.916 173.098 386.186 172.615C386.429 172.152 386.781 171.756 387.213 171.461C386.821 174.081 388.529 176.735 388.979 179.47C388.701 179.098 388.38 178.761 388.021 178.466H387.975Z" fill="#ED592A"/>
<path d="M462.039 189.579V204.454C462.039 206.073 462.682 207.626 463.827 208.771C464.971 209.916 466.524 210.559 468.143 210.559H493.912V219.064L498.528 210.928C499.895 210.829 501.175 210.216 502.108 209.211C503.042 208.207 503.56 206.887 503.559 205.516V189.579C503.558 188.772 503.396 187.972 503.084 187.228C502.771 186.483 502.314 185.808 501.739 185.241C501.164 184.674 500.482 184.228 499.732 183.926C498.983 183.625 498.182 183.475 497.374 183.486H468.143C466.526 183.486 464.975 184.128 463.831 185.27C462.686 186.412 462.042 187.962 462.039 189.579Z" fill="#ED592A"/>
<path d="M476.06 197.807C476.06 198.305 475.912 198.791 475.636 199.205C475.359 199.619 474.966 199.941 474.507 200.131C474.047 200.322 473.541 200.372 473.053 200.275C472.565 200.177 472.117 199.938 471.765 199.586C471.413 199.234 471.174 198.786 471.077 198.298C470.979 197.81 471.029 197.304 471.22 196.844C471.41 196.385 471.733 195.992 472.146 195.715C472.56 195.439 473.046 195.291 473.544 195.291C474.211 195.291 474.851 195.556 475.323 196.028C475.795 196.5 476.06 197.14 476.06 197.807Z" fill="white"/>
<path d="M485.615 197.807C485.615 198.305 485.467 198.791 485.191 199.205C484.914 199.619 484.521 199.941 484.062 200.131C483.602 200.322 483.096 200.372 482.608 200.275C482.12 200.177 481.672 199.938 481.32 199.586C480.968 199.234 480.729 198.786 480.632 198.298C480.535 197.81 480.584 197.304 480.775 196.844C480.965 196.385 481.288 195.992 481.701 195.715C482.115 195.439 482.601 195.291 483.099 195.291C483.766 195.291 484.406 195.556 484.878 196.028C485.35 196.5 485.615 197.14 485.615 197.807Z" fill="white"/>
<path d="M495.17 197.807C495.17 198.305 495.022 198.791 494.746 199.205C494.469 199.619 494.077 199.941 493.617 200.131C493.157 200.322 492.651 200.372 492.163 200.275C491.675 200.177 491.227 199.938 490.875 199.586C490.523 199.234 490.284 198.786 490.187 198.298C490.09 197.81 490.14 197.304 490.33 196.844C490.52 196.385 490.843 195.992 491.256 195.715C491.67 195.439 492.157 195.291 492.654 195.291C493.321 195.291 493.961 195.556 494.433 196.028C494.905 196.5 495.17 197.14 495.17 197.807Z" fill="white"/>
<path d="M482.372 233.789C481.853 232.635 449.079 261.566 442.547 262.558L423.437 237.655C423.437 237.655 419.467 231.365 410.939 220.587C405.446 213.663 390.271 215.071 386.278 223.553C379.504 237.943 379.274 257.019 374.035 287.669L369.603 313.669C369.603 313.669 376.146 312.896 376.123 312.953L422.653 308.118L423.807 276.96C433.039 286.284 435.854 288.235 440.643 287.496C452.68 285.627 494.789 247.752 494.789 247.752C494.789 247.752 482.88 234.966 482.372 233.789Z" fill="#455A64"/>
<path d="M489.111 253.049C488.271 252.538 487.496 251.925 486.803 251.226C483.203 248.029 480.065 244.347 477.479 240.286C476.896 239.473 476.419 238.589 476.06 237.655C476.684 238.404 477.251 239.198 477.756 240.032C478.818 241.521 480.329 243.552 482.141 245.675C483.953 247.798 485.707 249.61 487.011 250.903C487.769 251.559 488.472 252.277 489.111 253.049Z" fill="#263238"/>
<path d="M440.69 272.425C440.887 269.079 441.476 265.767 442.444 262.558C442.261 265.906 441.672 269.219 440.69 272.425Z" fill="#263238"/>
<path d="M444.867 271.398C444.191 270.042 443.698 268.602 443.401 267.116C442.906 265.686 442.607 264.196 442.513 262.685C443.183 264.043 443.675 265.482 443.978 266.966C444.467 268.398 444.766 269.888 444.867 271.398Z" fill="#263238"/>
<path opacity="0.2" d="M399.099 244.267L423.322 290.058L423.864 276.475L399.099 244.267Z" fill="black"/>
<path d="M397.53 242.04C397.953 242.468 398.339 242.932 398.684 243.425L401.569 247.291C404.004 250.568 407.408 255.057 411.228 259.985L421.037 272.552L423.98 276.383C424.359 276.838 424.699 277.324 424.995 277.837C424.576 277.434 424.19 276.998 423.841 276.533C423.045 275.564 422.006 274.317 420.748 272.817C418.163 269.655 414.621 265.27 410.801 260.354C406.981 255.438 403.623 250.891 401.269 247.556C400.115 245.883 399.157 244.521 398.534 243.563C398.154 243.087 397.818 242.577 397.53 242.04Z" fill="#263238"/>
<path d="M398.292 256.35C398.094 255.903 397.951 255.434 397.865 254.953C397.634 254.042 397.334 252.738 396.976 251.133L397.334 251.307L392.568 253.88L392.245 254.053L392.141 253.695C391.968 253.072 391.783 252.414 391.587 251.745L390.756 248.756L391.183 248.929L386.486 251.572L386.198 251.734V251.41C385.925 249.987 385.762 248.544 385.713 247.094C386.131 248.484 386.439 249.904 386.636 251.341L386.302 251.18L390.918 248.422L391.241 248.225L391.345 248.595C391.61 249.552 391.898 250.556 392.187 251.584C392.383 252.253 392.568 252.911 392.741 253.534L392.314 253.361L397.126 250.857L397.415 250.695L397.472 251.018C397.772 252.622 398.015 253.949 398.153 254.872C398.261 255.357 398.308 255.853 398.292 256.35Z" fill="#263238"/>
<path d="M403.981 230.465C403.521 230.289 403.086 230.052 402.688 229.761C401.892 229.265 400.773 228.538 399.411 227.638L399.78 227.511C399.296 229.046 398.753 230.8 398.165 232.681L398.049 233.039L397.726 232.854L395.972 231.827L393.295 230.258L393.722 230.085L392.187 235.254L392.095 235.566L391.841 235.37C390.656 234.533 389.538 233.607 388.494 232.6C389.756 233.314 390.963 234.121 392.106 235.012L391.76 235.127C392.164 233.604 392.637 231.85 393.156 229.934L393.26 229.565L393.583 229.761L396.272 231.308L398.026 232.335L397.599 232.496L399.284 227.338L399.399 227.026L399.665 227.211C400.992 228.157 402.077 228.942 402.827 229.519C403.249 229.786 403.637 230.104 403.981 230.465Z" fill="#263238"/>
<path d="M420.979 239.363C420.573 239.084 420.205 238.754 419.883 238.382C419.214 237.724 418.267 236.766 417.136 235.589H417.529C416.721 236.985 415.798 238.566 414.817 240.286L414.632 240.597L414.355 240.344L412.867 238.97L410.559 236.858L411.02 236.778C410.051 238.52 409.162 240.101 408.389 241.474L408.228 241.763L408.02 241.521C407.05 240.435 406.162 239.278 405.366 238.059C406.442 239.03 407.444 240.079 408.366 241.198H407.997L410.501 236.432L410.686 236.097L410.963 236.351L413.271 238.463L414.748 239.847H414.298L417.09 235.231L417.263 234.954L417.483 235.197C418.637 236.351 419.468 237.412 420.068 238.128C420.427 238.495 420.734 238.911 420.979 239.363Z" fill="#E0E0E0"/>
<path d="M465.801 268.501C465.801 268.501 465.408 268.132 464.831 267.405C464.254 266.678 463.435 265.605 462.466 264.289H462.858L459.581 268.605L459.35 268.894L459.119 268.617L457.803 267.059L455.83 264.681H456.292L453.095 269.009L452.899 269.274L452.726 269.009C451.901 267.818 451.164 266.569 450.522 265.27C451.467 266.356 452.328 267.513 453.095 268.732H452.726C453.637 267.451 454.676 265.962 455.818 264.324L456.038 264.024L456.28 264.312L458.276 266.689L459.581 268.247H459.119L462.477 264.001L462.685 263.735L462.869 264.001C463.804 265.351 464.554 266.459 465.074 267.243C465.361 267.635 465.605 268.057 465.801 268.501Z" fill="#263238"/>
<path d="M438.047 266.17C437.632 265.933 437.245 265.65 436.893 265.328C436.154 264.751 435.104 263.908 433.846 262.881L434.227 262.789L432.035 267.728L431.896 268.063L431.596 267.843L429.946 266.689L427.442 264.843L427.892 264.716C427.13 266.562 426.438 268.178 425.826 269.69L425.699 270.001L425.468 269.771C424.377 268.821 423.362 267.787 422.433 266.678C423.613 267.515 424.728 268.441 425.768 269.447L425.411 269.528C425.976 268.051 426.634 266.355 427.349 264.508L427.488 264.151L427.788 264.37L430.304 266.193L431.942 267.347L431.492 267.474L433.731 262.535L433.869 262.235L434.112 262.443C435.335 263.527 436.339 264.416 437.031 265.051C437.724 265.685 438.081 266.124 438.047 266.17Z" fill="#E0E0E0"/>
<path d="M477.756 259.65C477.599 259.187 477.498 258.706 477.456 258.219C477.318 257.284 477.133 255.911 476.925 254.342L477.271 254.538L472.286 256.684L471.951 256.823L471.882 256.465C471.767 255.819 471.64 255.149 471.513 254.469C471.317 253.407 471.132 252.391 470.959 251.41L471.363 251.618L466.458 253.88L466.158 254.007V253.684C466.017 252.242 465.99 250.791 466.078 249.345C466.364 250.767 466.538 252.211 466.597 253.661L466.285 253.465L471.144 251.157L471.478 250.983L471.548 251.364C471.732 252.345 471.928 253.361 472.125 254.411C472.251 255.103 472.367 255.773 472.482 256.407L472.078 256.188L477.098 254.145L477.41 254.018V254.342C477.56 255.969 477.675 257.307 477.733 258.242C477.794 258.709 477.802 259.181 477.756 259.65Z" fill="#E0E0E0"/>
<path d="M422.433 247.348C422.056 247.648 421.645 247.903 421.21 248.11C420.402 248.572 419.225 249.264 417.748 249.991L417.817 249.599L421.591 253.488L421.845 253.753L421.533 253.949L419.802 254.999L417.148 256.615V256.153L420.956 259.962L421.187 260.204L420.887 260.331C419.588 260.973 418.242 261.513 416.86 261.946C418.089 261.176 419.373 260.497 420.702 259.915L420.645 260.285L416.744 256.569L416.467 256.315L416.79 256.119L419.444 254.492L421.175 253.441V253.892C419.825 252.461 418.567 251.11 417.471 249.933L417.24 249.691L417.54 249.553C419.006 248.837 420.218 248.248 421.06 247.868C421.493 247.634 421.954 247.459 422.433 247.348Z" fill="#263238"/>
<path d="M443.609 272.425C443.231 272.739 442.816 273.006 442.374 273.221C441.567 273.683 440.389 274.375 438.912 275.091L438.97 274.71L442.755 278.599L443.009 278.853L442.697 279.049L440.966 280.11L438.301 281.714L438.358 281.264L442.167 285.073L442.397 285.303L442.097 285.43C440.796 286.07 439.45 286.614 438.07 287.058C439.322 286.288 440.63 285.613 441.982 285.038L441.913 285.407L438.024 281.691L437.747 281.426L438.07 281.23L440.713 279.614L442.455 278.553L442.397 279.014L438.693 275.056L438.462 274.814L438.751 274.675C440.216 273.948 441.428 273.371 442.282 272.979C442.699 272.737 443.145 272.551 443.609 272.425Z" fill="#E0E0E0"/>
<path d="M401.592 272.09C401.398 271.638 401.255 271.166 401.165 270.682C400.934 269.771 400.634 268.467 400.276 266.874L400.634 267.036L395.822 269.632L395.499 269.817L395.407 269.459C395.222 268.824 395.037 268.167 394.853 267.497C394.564 266.47 394.276 265.466 394.01 264.508L394.437 264.681L389.752 267.324L389.463 267.486V267.163C389.198 265.741 389.036 264.303 388.979 262.858C389.399 264.243 389.708 265.659 389.902 267.093L389.567 266.932L394.183 264.174L394.506 263.989L394.61 264.347C394.876 265.305 395.164 266.309 395.464 267.336L396.007 269.297L395.58 269.113L400.392 266.609L400.68 266.459L400.75 266.77C401.05 268.374 401.28 269.701 401.43 270.625C401.542 271.105 401.596 271.597 401.592 272.09Z" fill="#E0E0E0"/>
<path d="M420.818 282.984C420.622 282.533 420.478 282.06 420.391 281.576C420.16 280.664 419.86 279.36 419.502 277.768L419.86 277.929L415.105 280.526L414.782 280.711L414.678 280.353C414.494 279.718 414.309 279.06 414.124 278.403C413.836 277.364 413.559 276.36 413.282 275.402L413.709 275.575L409.024 278.218L408.735 278.379V278.068C408.47 276.643 408.308 275.2 408.251 273.752C408.669 275.137 408.978 276.553 409.174 277.987L408.839 277.837L413.455 275.079L413.778 274.883L413.882 275.252C414.159 276.21 414.436 277.202 414.736 278.229L415.278 280.191L414.863 280.007L419.664 277.502L419.964 277.352L420.021 277.664C420.321 279.268 420.552 280.595 420.702 281.518C420.806 282 420.845 282.492 420.818 282.984Z" fill="#263238"/>
<path d="M392.602 306.964C392.405 306.517 392.262 306.048 392.175 305.568C391.945 304.656 391.645 303.352 391.287 301.759L391.645 301.921L386.89 304.518L386.567 304.691L386.463 304.333C386.279 303.71 386.094 303.052 385.909 302.383L385.078 299.394L385.494 299.567L380.82 302.256L380.532 302.417V302.094C380.266 300.669 380.104 299.227 380.047 297.778C380.464 299.168 380.773 300.587 380.97 302.025L380.635 301.863L385.251 299.105L385.575 298.909L385.678 299.278C385.955 300.236 386.232 301.24 386.532 302.267L387.075 304.217L386.659 304.044L391.46 301.54L391.76 301.379L391.818 301.702C392.118 303.306 392.349 304.633 392.499 305.556C392.601 306.018 392.636 306.492 392.602 306.964Z" fill="#E0E0E0"/>
<path d="M393.156 281.795C392.719 281.571 392.311 281.292 391.945 280.964C391.195 280.41 390.133 279.58 388.863 278.553L389.244 278.46L387.155 283.469L387.017 283.803L386.717 283.584C386.175 283.215 385.621 282.811 385.055 282.43L382.539 280.618L382.978 280.491L380.97 285.488L380.843 285.788L380.612 285.569C379.514 284.623 378.485 283.602 377.531 282.511C378.728 283.328 379.859 284.239 380.912 285.234L380.555 285.326C381.097 283.849 381.709 282.141 382.436 280.284L382.563 279.926L382.874 280.145L385.436 281.922L387.086 283.076L386.648 283.192L388.829 278.229L388.967 277.929L389.21 278.137C390.444 279.21 391.46 280.087 392.152 280.722C392.528 281.039 392.865 281.399 393.156 281.795Z" fill="#263238"/>
<path d="M403.219 282.476C402.872 282.815 402.485 283.11 402.065 283.353C401.292 283.872 400.161 284.599 398.776 285.465V285.073L402.827 288.685L403.092 288.939L402.792 289.146L401.142 290.3L398.603 292.089V291.639L402.746 295.193L402.988 295.412L402.711 295.562C401.457 296.292 400.149 296.924 398.799 297.455C399.973 296.598 401.207 295.826 402.492 295.147V295.516L398.338 292.054L398.049 291.812L398.361 291.593L400.888 289.792L402.538 288.638V289.1L398.569 285.419L398.326 285.188L398.603 285.026C400.011 284.207 401.177 283.538 402.007 283.088C402.384 282.834 402.791 282.629 403.219 282.476Z" fill="#263238"/>
<path d="M414.286 290.346C414.07 290.787 413.798 291.198 413.478 291.57C412.924 292.331 412.105 293.393 411.101 294.685L411.009 294.305L416.04 296.324L416.375 296.451L416.167 296.763L415.013 298.436L413.236 300.986L413.097 300.536L418.117 302.475L418.429 302.602L418.21 302.833C417.285 303.949 416.274 304.991 415.186 305.948C415.999 304.751 416.898 303.613 417.875 302.544L417.967 302.902L412.901 301.09L412.543 300.963L412.763 300.652C413.317 299.832 413.917 298.978 414.517 298.09C414.921 297.524 415.302 296.936 415.671 296.428L415.798 296.867L410.824 294.755L410.524 294.628L410.732 294.374C411.782 293.116 412.647 292.066 413.27 291.397C413.894 290.727 414.286 290.312 414.286 290.346Z" fill="#E0E0E0"/>
<path d="M408.008 309.157C408.008 309.157 408.008 309.284 408.135 309.537C408.262 309.791 408.331 310.195 408.47 310.691C408.747 311.695 409.162 313.184 409.624 315.111C410.086 317.038 410.674 319.393 411.078 322.197C411.353 323.726 411.147 325.302 410.489 326.709C409.759 328.268 408.759 329.686 407.535 330.898V330.702C410.559 345.058 414.794 365.172 419.491 387.421C424.049 409.347 428.123 429.138 431.031 443.505C432.473 450.683 433.616 456.499 434.366 460.527C434.747 462.535 435.023 464.104 435.197 465.143C435.323 465.68 435.385 466.23 435.381 466.781C435.381 466.781 435.289 466.228 435.081 465.166C434.873 464.104 434.539 462.523 434.135 460.55C433.292 456.499 432.092 450.706 430.615 443.563C427.615 429.196 423.495 409.393 418.937 387.525C414.321 365.253 410.143 345.127 407.166 330.771V330.656L407.247 330.575C409.693 328.117 411.343 325.013 410.709 322.22C410.339 319.439 409.774 317.061 409.347 315.134C408.92 313.207 408.551 311.753 408.297 310.703L408.02 309.549C408.001 309.419 407.997 309.287 408.008 309.157Z" fill="#455A64"/>
<path d="M383.705 311.926C383.705 311.926 383.89 312.18 384.063 312.711C384.309 313.458 384.457 314.234 384.501 315.019C384.692 317.655 383.897 320.269 382.27 322.352C380.643 324.435 378.3 325.84 375.696 326.294C374.936 326.435 374.16 326.482 373.388 326.432C373.1 326.437 372.814 326.386 372.546 326.282C372.546 326.167 373.769 326.282 375.65 325.878C378.103 325.339 380.291 323.96 381.835 321.979C383.379 319.999 384.184 317.541 384.109 315.03C384.035 313.989 383.901 312.952 383.705 311.926Z" fill="#455A64"/>
<path d="M403.034 313.161C403.034 313.161 403.034 312.988 403.311 312.838C403.484 312.738 403.675 312.673 403.873 312.647C404.072 312.622 404.273 312.635 404.465 312.688C404.764 312.761 405.034 312.923 405.239 313.151C405.445 313.379 405.577 313.664 405.619 313.969C405.676 314.351 405.602 314.74 405.412 315.076C405.221 315.411 404.924 315.673 404.567 315.82C404.21 315.968 403.815 315.991 403.443 315.888C403.071 315.785 402.745 315.56 402.515 315.25C402.326 315.009 402.208 314.721 402.174 314.418C402.139 314.114 402.189 313.807 402.319 313.53C402.792 312.596 403.554 312.572 403.531 312.642C403.508 312.711 402.977 312.919 402.723 313.68C402.648 313.885 402.629 314.107 402.667 314.321C402.706 314.536 402.801 314.737 402.942 314.904C403.114 315.098 403.339 315.237 403.589 315.305C403.839 315.372 404.104 315.365 404.35 315.284C404.581 315.173 404.773 314.995 404.901 314.772C405.029 314.55 405.086 314.294 405.066 314.038C405.05 313.823 404.97 313.618 404.836 313.449C404.702 313.281 404.521 313.156 404.315 313.092C403.892 312.977 403.443 313.002 403.034 313.161Z" fill="#455A64"/>
<path d="M427.43 315.723C426.772 316.187 425.996 316.455 425.191 316.496C423.251 316.787 421.271 316.362 419.621 315.301C417.971 314.239 416.764 312.613 416.225 310.726C415.947 309.99 415.871 309.193 416.005 308.418C416.109 308.418 416.132 309.318 416.617 310.645C417.228 312.378 418.397 313.86 419.94 314.858C421.483 315.856 423.314 316.315 425.145 316.161C426.553 315.977 427.396 315.631 427.43 315.723Z" fill="#455A64"/>
<path d="M440.101 492.158C439.725 492.261 439.336 492.308 438.947 492.296L435.808 492.469L425.422 492.966L415.036 493.508L411.886 493.635C411.503 493.689 411.114 493.689 410.732 493.635C411.104 493.508 411.493 493.438 411.886 493.427C412.613 493.335 413.686 493.22 415.013 493.104C417.656 492.862 421.325 492.596 425.399 492.389C429.473 492.181 433.131 492.089 435.785 492.077C437.112 492.077 438.185 492.077 438.935 492.077C439.326 492.05 439.718 492.077 440.101 492.158Z" fill="#455A64"/>
<path d="M387.421 325.093C387.582 325.093 396.653 362.518 407.72 408.758C418.787 454.999 427.592 492.539 427.43 492.573C427.269 492.608 418.198 455.161 407.131 408.897C396.064 362.633 387.259 325.128 387.421 325.093Z" fill="#455A64"/>
<path d="M416.952 326.582C417.031 326.658 417.101 326.743 417.159 326.836L417.725 327.586L419.871 330.529L427.649 341.388L439.132 357.544L445.883 367.11C448.191 370.434 450.499 374.161 451.11 378.547C451.722 382.932 450.441 387.167 449.114 390.964C447.787 394.76 446.333 398.453 444.994 401.927C442.294 408.851 439.732 415.105 437.505 420.287C435.277 425.468 433.396 429.634 432.081 432.496L430.523 435.785L430.107 436.627C430.004 436.812 429.957 436.916 429.946 436.904C429.966 436.8 430.001 436.699 430.05 436.604C430.142 436.374 430.269 436.085 430.419 435.727L431.861 432.404C433.119 429.507 434.943 425.318 437.112 420.125C439.282 414.932 441.809 408.701 444.475 401.73C445.802 398.268 447.175 394.587 448.548 390.767C449.922 386.948 451.122 382.851 450.522 378.627C449.922 374.404 447.648 370.757 445.398 367.445L438.682 357.867L427.303 341.584L419.675 330.609L417.633 327.609C417.413 327.286 417.24 327.032 417.113 326.824C416.986 326.617 416.94 326.582 416.952 326.582Z" fill="#455A64"/>
<path d="M475.598 234.966L501.367 216.156L502.636 218.175L477.029 237.216L475.598 234.966Z" fill="#263238"/>
<path d="M481.968 234.389C481.968 234.389 485.43 225.388 486.203 223.472C486.977 221.556 488.292 218.221 488.788 218.152C489.285 218.083 491.096 218.36 488.731 224.084C486.365 229.808 491.512 226.311 491.512 226.311L496.474 222.757C496.474 222.757 500.398 234.481 498.17 238.013C496.417 240.655 494.449 243.149 492.285 245.467L481.968 234.389Z" fill="#FFBE9D"/>
<path d="M154.925 383.59C155.259 381.639 154.521 374.508 154.521 374.508C154.521 374.508 147.043 373.711 146.593 366.303C146.143 358.894 146.593 341.792 146.593 341.792L160.21 335.133L175.212 346.477L172.904 383.555L154.925 383.59Z" fill="#B78876"/>
<path d="M148.658 354.186C148.658 354.437 148.758 354.677 148.935 354.855C149.113 355.032 149.354 355.132 149.605 355.132C149.856 355.132 150.096 355.032 150.274 354.855C150.451 354.677 150.551 354.437 150.551 354.186C150.551 354.061 150.526 353.938 150.479 353.824C150.431 353.709 150.362 353.604 150.274 353.517C150.186 353.429 150.082 353.359 149.967 353.311C149.852 353.264 149.729 353.239 149.605 353.239C149.48 353.239 149.357 353.264 149.242 353.311C149.128 353.359 149.023 353.429 148.935 353.517C148.848 353.604 148.778 353.709 148.73 353.824C148.683 353.938 148.658 354.061 148.658 354.186Z" fill="#263238"/>
<path d="M147.274 353.505C147.389 353.62 148.093 353.032 149.108 352.974C150.124 352.916 150.897 353.413 151.012 353.274C151.128 353.136 150.932 352.986 150.597 352.755C150.146 352.459 149.612 352.317 149.074 352.351C148.535 352.388 148.023 352.594 147.608 352.939C147.308 353.205 147.204 353.447 147.274 353.505Z" fill="#263238"/>
<path d="M160.648 354.959C161.171 354.959 161.595 354.535 161.595 354.013C161.595 353.49 161.171 353.066 160.648 353.066C160.126 353.066 159.702 353.49 159.702 354.013C159.702 354.535 160.126 354.959 160.648 354.959Z" fill="#263238"/>
<path d="M158.306 353.32C158.433 353.447 159.125 352.847 160.152 352.801C161.179 352.755 161.941 353.239 162.045 353.101C162.149 352.962 161.975 352.812 161.641 352.582C161.189 352.287 160.655 352.146 160.118 352.178C159.578 352.21 159.064 352.416 158.652 352.766C158.34 353.032 158.248 353.274 158.306 353.32Z" fill="#263238"/>
<path d="M154.798 361.848C154.251 361.706 153.689 361.636 153.124 361.641C152.87 361.641 152.617 361.583 152.559 361.398C152.527 361.113 152.579 360.824 152.709 360.567L153.401 358.455C154.062 356.66 154.583 354.816 154.959 352.939C154.184 354.688 153.532 356.489 153.009 358.329C152.767 359.067 152.547 359.783 152.34 360.452C152.181 360.787 152.144 361.166 152.236 361.525C152.275 361.617 152.335 361.698 152.411 361.762C152.487 361.826 152.577 361.872 152.674 361.894C152.82 361.916 152.967 361.916 153.113 361.894C153.674 361.947 154.24 361.931 154.798 361.848Z" fill="#263238"/>
<path d="M158.179 362.818C156.684 363.764 154.989 364.345 153.228 364.514C153.603 365.033 154.142 365.409 154.758 365.583C155.374 365.757 156.03 365.718 156.621 365.472C158.802 364.56 158.179 362.818 158.179 362.818Z" fill="white"/>
<path d="M154.521 374.508C158.044 374.36 161.452 373.207 164.341 371.184C164.341 371.184 162.114 376.631 154.682 376.331L154.521 374.508Z" fill="#A36957"/>
<path d="M185.032 351.97C185.032 351.97 188.056 369.061 173.619 372.142L174.046 351.555L185.032 351.97Z" fill="#263238"/>
<path d="M184.559 348.185C183.658 344.527 181.973 341.11 179.62 338.168C181.697 339.034 183.082 339.899 183.371 339.622C183.659 339.345 183.128 338.826 182.217 338.053C181.033 337.084 179.679 336.344 178.224 335.872L177.543 335.687C178.495 335.308 179.365 334.747 180.105 334.037C180.99 333.208 181.602 332.129 181.86 330.944C182.117 329.759 182.008 328.523 181.547 327.401C181.026 326.447 180.234 325.67 179.27 325.166C178.307 324.663 177.216 324.457 176.135 324.574C175.061 324.726 174.038 325.127 173.148 325.747C172.259 326.366 171.526 327.186 171.011 328.14C170.763 328.596 170.558 329.076 170.4 329.571C170.435 328.751 170.519 327.934 170.654 327.124C171.115 324.274 172.177 322.139 172.004 322.047C170.909 323.496 170.227 325.215 170.03 327.021C170.03 327.297 169.961 327.563 169.927 327.828C169.7 327.091 169.422 326.37 169.096 325.67C168.392 324.182 167.722 323.362 167.526 323.489C167.122 323.685 168.438 326.813 168.98 331.036C167.682 330.604 166.331 330.352 164.964 330.286C162.449 330.286 158.271 329.132 152.363 333.875C150.362 335.152 148.633 336.811 147.274 338.757C145.321 341.614 144.22 344.968 144.1 348.427C144.064 349.466 144.13 350.506 144.296 351.531C144.331 351.91 144.429 352.281 144.585 352.628C144.7 352.628 144.365 351.024 144.585 348.45C144.714 346.542 145.139 344.666 145.843 342.888C144.963 345.965 145.159 349.25 146.396 352.201L159.61 350.135C158.756 347.239 159.379 342.646 159.783 340.395C162.091 351.185 171.381 356.367 171.381 356.367L185.286 354.186C185.09 352.928 184.859 349.316 184.559 348.185Z" fill="#263238"/>
<path d="M216.548 513.461C216.975 513.668 251.064 520.385 249.806 515.769C248.549 511.153 216.848 503.906 216.848 503.906L216.548 513.461Z" fill="#ED592A"/>
<path d="M232.046 510.449C232.208 510.449 232.45 511.234 232.439 512.261C232.427 513.288 232.185 514.095 232.023 514.072C231.862 514.049 231.827 513.241 231.839 512.261C231.85 511.28 231.885 510.46 232.046 510.449Z" fill="#263238"/>
<path d="M230.235 509.826C230.385 509.826 230.685 510.737 230.569 511.937C230.454 513.138 230.027 514.015 229.877 513.957C229.727 513.899 229.877 512.999 229.969 511.88C230.061 510.76 230.061 509.849 230.235 509.826Z" fill="#263238"/>
<path d="M228.03 509.641C228.192 509.641 228.423 510.541 228.446 511.695C228.469 512.849 228.273 513.772 228.111 513.761C227.95 513.749 227.869 512.838 227.846 511.707C227.823 510.576 227.869 509.653 228.03 509.641Z" fill="#263238"/>
<path d="M223.876 506.306C224.055 506.297 224.234 506.316 224.407 506.364C224.753 506.364 225.261 506.525 225.907 506.675C227.211 506.952 229.092 507.402 231.389 508.037C233.685 508.672 236.408 509.468 239.386 510.483C240.874 510.991 242.455 511.51 244.002 512.191C245.678 512.867 247.218 513.841 248.549 515.065C248.756 515.231 248.925 515.439 249.045 515.676C249.118 515.844 249.129 516.033 249.076 516.208C249.023 516.384 248.91 516.535 248.756 516.634C248.312 516.865 247.814 516.973 247.314 516.946C246.425 517.015 245.548 517.05 244.694 517.073C242.975 517.073 241.313 517.073 239.732 516.946C236.582 516.75 233.766 516.357 231.412 515.988C229.058 515.619 227.165 515.249 225.861 514.984L224.361 514.672C224.181 514.648 224.006 514.598 223.841 514.522C224.531 514.545 225.218 514.622 225.896 514.753L231.469 515.561C233.777 515.884 236.639 516.23 239.767 516.403C241.336 516.484 242.975 516.53 244.683 516.484C245.525 516.484 246.402 516.427 247.268 516.357C247.664 516.38 248.061 516.305 248.422 516.138C248.525 516.057 248.537 516.011 248.502 515.907C248.406 515.751 248.285 515.61 248.145 515.492C246.863 514.319 245.382 513.385 243.771 512.734C242.225 512.064 240.655 511.58 239.155 511.003C236.189 509.976 233.489 509.122 231.215 508.441C228.942 507.76 227.073 507.287 225.792 506.895C225.141 506.74 224.501 506.544 223.876 506.306Z" fill="#263238"/>
<path d="M241.982 511.372C242.144 511.43 241.809 512.722 241.982 514.315C242.155 515.907 242.594 517.142 242.432 517.223C241.818 516.386 241.454 515.392 241.382 514.356C241.311 513.32 241.535 512.285 242.028 511.372H241.982Z" fill="#263238"/>
<path d="M103.86 506.71C103.387 506.71 68.9862 511.453 71.6519 515.319C74.3176 519.185 106.676 515.792 106.676 515.792L103.86 506.71Z" fill="#ED592A"/>
<path d="M90.1275 514.615C89.989 514.684 89.4928 513.992 89.1697 513.022C88.8465 512.053 88.8581 511.222 88.9735 511.222C89.0889 511.222 89.4235 511.949 89.7351 512.884C90.0467 513.818 90.2775 514.534 90.1275 514.615Z" fill="#263238"/>
<path d="M92.0546 514.603C91.9161 514.684 91.3276 513.888 91.0391 512.722C90.7506 511.557 90.8775 510.576 91.0391 510.576C91.2006 510.576 91.3507 511.487 91.6276 512.572C91.9046 513.657 92.2046 514.522 92.0546 514.603Z" fill="#263238"/>
<path d="M94.1895 514.061C94.0395 514.13 93.5317 513.334 93.1278 512.249C92.7239 511.164 92.6085 510.23 92.7701 510.183C92.9317 510.137 93.3009 510.991 93.6933 512.041C94.0857 513.091 94.3396 513.992 94.1895 514.061Z" fill="#263238"/>
<path d="M99.244 515.838C99.0778 515.903 98.9027 515.942 98.7247 515.953L97.2015 516.15C95.8744 516.311 93.9587 516.496 91.5815 516.646C89.2042 516.796 86.3654 516.923 83.215 516.946C81.634 516.946 79.9838 516.946 78.2528 516.842C76.4493 516.763 74.6763 516.348 73.0252 515.619C72.7717 515.529 72.5398 515.388 72.3443 515.203C72.2299 515.063 72.1675 514.888 72.1675 514.707C72.1675 514.526 72.2299 514.351 72.3443 514.211C72.684 513.842 73.1194 513.574 73.6022 513.438C74.4215 513.08 75.2293 512.768 76.0371 512.457C77.6527 511.868 79.2452 511.384 80.7685 510.957C83.8151 510.114 86.6077 509.572 88.9504 509.156C91.293 508.741 93.2086 508.464 94.5242 508.291L96.0475 508.095C96.2233 508.067 96.4025 508.067 96.5783 508.095C95.918 508.297 95.2427 508.448 94.5588 508.545L89.0311 509.595C86.7231 510.068 83.9305 510.657 80.9531 511.511C79.4414 511.949 77.872 512.434 76.3371 513.034C75.5409 513.345 74.7331 513.657 73.9253 514.003C73.5489 514.112 73.2044 514.31 72.9213 514.58C72.8521 514.696 72.8521 514.73 72.9213 514.822C73.0657 514.942 73.2297 515.036 73.406 515.099C74.9951 515.786 76.6963 516.177 78.4259 516.253C80.1107 516.392 81.7725 516.38 83.3419 516.392C86.4808 516.392 89.3081 516.323 91.6853 516.23C94.0626 516.138 95.9782 516 97.3053 515.919C97.949 515.849 98.5967 515.822 99.244 515.838Z" fill="#263238"/>
<path d="M80.4454 516.992C80.2607 516.992 80.1684 515.665 79.5222 514.199C78.8759 512.734 78.022 511.718 78.1489 511.603C78.2758 511.487 79.4068 512.353 80.0761 513.911C80.5902 514.852 80.7224 515.956 80.4454 516.992Z" fill="#263238"/>
<path d="M210.524 464.947H193.018L128.394 466.62L109.93 464.231C107.057 463.596 105.164 463.331 104.552 463.527C102.072 464.561 99.8989 466.214 98.2401 468.328C91.2007 476.729 95.6321 489.677 106.226 492.562L116.173 495.262L94.4088 502.255L101.76 523.12C101.76 523.12 134.256 516.092 165.772 508.672L216.202 522.312L223.472 498.897L214.921 496.116C220.287 494.477 223.68 493.185 224.153 492.4C227.327 487.484 232.947 464.623 210.444 464.97" fill="#455A64"/>
<path opacity="0.2" d="M214.644 496.197L177.162 511.718L165.83 508.649L214.644 496.197Z" fill="black"/>
<path opacity="0.2" d="M116.335 466.701L164.318 480.445L200.865 467.982L116.335 466.701Z" fill="black"/>
<path d="M109.503 521.608C108.89 520.659 108.376 519.65 107.968 518.596C107.114 516.692 106.006 513.98 104.922 511.026C103.837 508.072 102.948 505.256 102.383 503.271C102.018 502.203 101.759 501.101 101.61 499.982C102.08 501.003 102.466 502.06 102.764 503.144C103.433 505.117 104.368 507.841 105.453 510.818C106.537 513.795 107.587 516.484 108.338 518.423C108.807 519.453 109.196 520.518 109.503 521.608Z" fill="#263238"/>
<path d="M225.18 472.725C225.087 472.781 224.986 472.824 224.88 472.851L223.98 473.186L220.518 474.409L207.72 478.76C196.861 482.384 181.836 487.288 165.184 492.516C148.531 497.743 133.391 502.302 122.416 505.533L109.399 509.295L105.856 510.276L104.922 510.518C104.817 510.551 104.708 510.571 104.599 510.576L104.91 510.46L105.822 510.16L109.284 509.064L122.243 505.117C133.195 501.794 148.301 497.166 164.941 491.939C181.582 486.711 196.63 481.876 207.512 478.356L220.414 474.19L223.934 473.036L224.845 472.759C224.955 472.731 225.067 472.72 225.18 472.725Z" fill="#263238"/>
<path d="M190.237 471.882C190.004 472.015 189.756 472.12 189.498 472.194L187.352 472.978C185.482 473.648 182.736 474.594 179.389 475.736C172.65 478.044 163.314 481.091 152.986 484.403C142.658 487.715 133.264 490.635 126.444 492.689C122.982 493.716 120.27 494.524 118.366 495.066L116.162 495.678C115.904 495.753 115.642 495.811 115.377 495.851C115.615 495.726 115.867 495.629 116.127 495.562L118.297 494.847L126.375 492.285L152.847 483.838L179.297 475.333L187.317 472.759L189.51 472.078C189.745 471.987 189.988 471.921 190.237 471.882Z" fill="#263238"/>
<path d="M164.076 480.364C164.076 480.526 153.309 477.594 140.119 473.821C126.928 470.047 116.289 466.897 116.335 466.701C116.381 466.505 127.102 469.47 140.28 473.244C153.459 477.017 164.122 480.202 164.076 480.364Z" fill="#263238"/>
<path d="M216.479 497.305C215.296 501.199 213.917 505.032 212.348 508.787C209.913 515.065 207.812 520.096 207.662 520.039C208.842 516.147 210.221 512.318 211.794 508.568C214.229 502.29 216.329 497.247 216.479 497.305Z" fill="#263238"/>
<path d="M211.978 506.975C208.795 506.426 205.647 505.69 202.55 504.771C199.418 504.031 196.335 503.098 193.318 501.978C196.502 502.525 199.65 503.261 202.746 504.183C205.878 504.923 208.961 505.855 211.978 506.975Z" fill="#263238"/>
<path d="M140.2 487.842C139.595 487.769 138.997 487.649 138.411 487.484L133.587 486.33C129.525 485.292 123.905 483.884 117.777 482.037C112.525 480.494 107.378 478.609 102.371 476.394C100.467 475.517 98.9094 474.756 97.917 474.19C97.3648 473.93 96.8392 473.617 96.3475 473.255C96.9233 473.454 97.4828 473.697 98.0208 473.982C99.0825 474.479 100.617 475.136 102.545 476.002C107.579 478.094 112.722 479.916 117.95 481.46C124.067 483.307 129.664 484.772 133.703 485.915L138.469 487.288C139.063 487.414 139.643 487.6 140.2 487.842Z" fill="#263238"/>
<path d="M175.673 382.563H174.254L174.046 377.646L154.555 378.8C154.555 378.8 154.751 381.109 154.74 382.713C142.738 383.867 123.501 390.029 123.04 417.044L138.434 417.402C137.13 429.796 137.28 437.193 136.022 441.844C133.876 449.529 127.079 465.754 128.44 466.574C129.802 467.393 192.972 468.559 195.984 466.92C198.996 465.281 193.514 444.105 192.141 438.358C191.276 434.689 191.091 426.288 191.068 419.791L208.747 418.994C208.747 418.994 210.028 382.459 175.673 382.563Z" fill="#ED592A"/>
<path d="M174.15 382.366C173.219 382.641 172.258 382.804 171.288 382.851C169.5 383.059 167.03 383.255 164.295 383.313C161.56 383.37 159.09 383.313 157.302 383.151C156.329 383.135 155.362 383.011 154.417 382.782C155.378 382.668 156.348 382.648 157.313 382.724C159.102 382.724 161.56 382.724 164.237 382.724C166.915 382.724 169.419 382.539 171.161 382.447C172.153 382.324 173.154 382.297 174.15 382.366Z" fill="#263238"/>
<path d="M158.098 378.639C158.271 378.639 158.398 379.585 158.398 380.751C158.398 381.916 158.271 382.874 158.098 382.874C157.925 382.874 157.798 381.928 157.798 380.751C157.798 379.574 157.879 378.639 158.098 378.639Z" fill="#263238"/>
<path d="M163.256 378.27C163.418 378.27 163.58 379.308 163.614 380.578C163.72 381.354 163.641 382.145 163.383 382.886C163.21 382.886 163.049 381.847 163.014 380.578C162.905 379.8 162.988 379.008 163.256 378.27Z" fill="#263238"/>
<path d="M168.634 378.085C168.796 378.085 169.026 379.101 169.049 380.393C169.073 381.686 168.899 382.701 168.726 382.701C168.475 381.959 168.38 381.173 168.449 380.393C168.484 379.147 168.484 378.097 168.634 378.085Z" fill="#263238"/>
<path d="M172.535 377.9C172.708 377.9 172.823 378.916 172.985 380.151C173.146 381.385 173.273 382.401 173.112 382.459C172.95 382.516 172.546 381.524 172.396 380.231C172.246 378.939 172.373 377.889 172.535 377.9Z" fill="#263238"/>
<path d="M140.869 417.113C140.558 415.207 140.442 413.273 140.523 411.343C140.4 409.416 140.485 407.482 140.777 405.573C141.081 407.481 141.197 409.413 141.123 411.343C141.23 413.27 141.145 415.203 140.869 417.113Z" fill="#263238"/>
<path d="M190.41 419.04C189.943 416.993 189.664 414.907 189.579 412.809C189.301 410.725 189.227 408.618 189.36 406.52C190.101 410.651 190.452 414.843 190.41 419.04Z" fill="#263238"/>
<path d="M140.869 417.113C139.989 417.23 139.1 417.257 138.215 417.194H131.856H125.486C124.605 417.257 123.719 417.23 122.843 417.113C123.703 416.892 124.587 416.78 125.475 416.779C127.102 416.652 129.363 416.559 131.856 416.571C134.349 416.582 136.611 416.663 138.238 416.79C139.124 416.793 140.008 416.902 140.869 417.113Z" fill="#263238"/>
<path d="M208.712 419.04C205.587 419.344 202.446 419.445 199.307 419.341C196.165 419.445 193.02 419.345 189.891 419.04C193.02 418.743 196.165 418.643 199.307 418.74C202.446 418.643 205.587 418.743 208.712 419.04Z" fill="#263238"/>
<path d="M207.939 419.19C207.939 419.19 212.555 462.269 199.354 466.504C186.152 470.74 160.118 450.683 160.118 450.683L167.619 435.497C167.619 435.497 184.929 447.521 188.668 444.809C192.406 442.097 190.456 419.19 190.456 419.19H207.939Z" fill="#B78876"/>
<path d="M123.259 417.113C123.259 417.113 118.562 459.754 131.752 464C144.942 468.247 170.988 448.167 170.988 448.167L163.476 432.981C163.476 432.981 146.062 444.117 142.45 441.301C140.361 439.662 140.303 417.333 140.303 417.333C134.164 417.067 128.475 416.802 123.259 417.113Z" fill="#B78876"/>
<path d="M199.723 425.999L190.964 468.928C190.964 468.928 137.141 468.512 136.588 468.351C136.034 468.189 130.818 425.999 130.818 425.999H199.723Z" fill="#263238"/>
<path d="M161.064 447.752C161.02 448.399 161.171 449.043 161.499 449.603C161.826 450.162 162.314 450.61 162.899 450.889C163.484 451.167 164.14 451.264 164.78 451.165C165.421 451.066 166.017 450.777 166.491 450.335C166.965 449.893 167.295 449.319 167.439 448.687C167.582 448.055 167.532 447.394 167.295 446.791C167.059 446.187 166.646 445.669 166.111 445.304C165.576 444.938 164.943 444.742 164.295 444.74C163.468 444.715 162.665 445.017 162.06 445.581C161.455 446.145 161.097 446.926 161.064 447.752Z" fill="white"/>
<path d="M172.373 353.563C172.86 353.261 173.415 353.085 173.987 353.051C174.559 353.017 175.13 353.125 175.65 353.366C176.314 353.902 176.751 354.669 176.874 355.513C177.028 356.196 177.02 356.906 176.85 357.586C176.679 358.265 176.352 358.895 175.893 359.425C175.414 359.936 174.774 360.266 174.081 360.361C173.387 360.455 172.682 360.308 172.084 359.944" fill="#B78876"/>
<path d="M173.758 358.767C173.758 358.675 174.127 358.617 174.554 358.294C174.836 358.111 175.064 357.857 175.214 357.556C175.364 357.256 175.431 356.921 175.408 356.586C175.375 356.255 175.257 355.939 175.065 355.668C174.872 355.397 174.613 355.18 174.312 355.04C173.827 354.809 173.458 354.82 173.446 354.728C173.435 354.636 173.816 354.463 174.462 354.624C174.884 354.749 175.259 354.998 175.538 355.338C175.818 355.678 175.989 356.094 176.03 356.532C176.071 356.97 175.98 357.411 175.768 357.797C175.556 358.183 175.234 358.497 174.843 358.698C174.173 358.952 173.758 358.894 173.758 358.767Z" fill="#A36957"/>
</svg>
