<svg width="572" height="572" viewBox="0 0 572 572" fill="none" xmlns="http://www.w3.org/2000/svg">
<path d="M492.263 331.485V380.002C492.263 384.22 490.588 388.264 487.606 391.247C484.624 394.229 480.579 395.904 476.362 395.904H302.393C298.178 395.901 294.136 394.224 291.157 391.242C288.177 388.261 286.503 384.218 286.503 380.002V339.001L264.836 316.247L476.316 315.595C478.407 315.588 480.48 315.993 482.414 316.788C484.349 317.584 486.107 318.753 487.589 320.229C489.07 321.705 490.246 323.46 491.048 325.391C491.85 327.323 492.263 329.394 492.263 331.485Z" fill="#F5F5F5"/>
<path d="M312.14 344.985L470.012 344.252L469.989 339.402L312.129 340.134L312.14 344.985Z" fill="#E6E6E6"/>
<path d="M312.14 360.943L470.012 360.223L469.989 355.372L312.129 356.093L312.14 360.943Z" fill="#E6E6E6"/>
<path d="M374.572 371.361L312.11 371.666L312.134 376.516L374.596 376.211L374.572 371.361Z" fill="#E6E6E6"/>
<path d="M183.944 53.2875H286.549C287.751 53.2875 288.941 53.5242 290.051 53.9841C291.162 54.4441 292.171 55.1182 293.021 55.968C293.87 56.8179 294.545 57.8268 295.004 58.9372C295.464 60.0475 295.701 61.2376 295.701 62.4395V112.673C295.701 115.1 294.737 117.428 293.021 119.144C291.304 120.86 288.976 121.825 286.549 121.825H199.479C197.052 121.825 194.724 120.86 193.008 119.144C191.291 117.428 190.327 115.1 190.327 112.673V59.6252L183.944 53.2875Z" fill="#F5F5F5"/>
<path d="M312.85 144.647V162.677C312.85 163.89 313.332 165.054 314.19 165.912C315.048 166.771 316.212 167.253 317.426 167.253H418.166C419.38 167.253 420.544 166.771 421.402 165.912C422.26 165.054 422.742 163.89 422.742 162.677V152.827L434.308 140.449L317.437 140.071C316.835 140.07 316.239 140.187 315.682 140.416C315.126 140.646 314.62 140.982 314.194 141.408C313.768 141.833 313.43 142.338 313.199 142.893C312.968 143.449 312.85 144.045 312.85 144.647Z" fill="#F0F0F0"/>
<path d="M244.942 108.783V140.964C244.943 142.348 244.672 143.72 244.143 144.999C243.614 146.279 242.838 147.442 241.86 148.421C240.881 149.401 239.719 150.178 238.44 150.708C237.161 151.238 235.79 151.511 234.406 151.511H118.976C117.591 151.511 116.22 151.238 114.941 150.708C113.662 150.178 112.5 149.401 111.522 148.421C110.543 147.442 109.767 146.279 109.239 144.999C108.71 143.72 108.438 142.348 108.44 140.964V113.782L94.1055 98.6814L234.371 98.2466C235.758 98.2421 237.132 98.5113 238.414 99.0388C239.696 99.5663 240.862 100.342 241.844 101.32C242.826 102.299 243.605 103.462 244.137 104.743C244.668 106.023 244.942 107.396 244.942 108.783Z" fill="#E0E0E0"/>
<path d="M125.485 117.74L230.184 117.26L230.173 114.045L125.474 114.526L125.485 117.74Z" fill="#F0F0F0"/>
<path d="M125.485 128.334L230.184 127.842L230.173 124.627L125.474 125.108L125.485 128.334Z" fill="#F0F0F0"/>
<path d="M166.883 135.239L125.459 135.441L125.475 138.656L166.898 138.453L166.883 135.239Z" fill="#F0F0F0"/>
<path d="M74.8748 214.98V263.509C74.8748 265.597 75.2862 267.664 76.0854 269.592C76.8847 271.521 78.0562 273.273 79.5329 274.749C81.0097 276.225 82.7628 277.395 84.692 278.193C86.6212 278.991 88.6887 279.401 90.7764 279.399H264.744C266.832 279.401 268.9 278.991 270.829 278.193C272.758 277.395 274.511 276.225 275.988 274.749C277.465 273.273 278.636 271.521 279.435 269.592C280.235 267.664 280.646 265.597 280.646 263.509V222.508L302.302 199.754L90.8221 199.056C88.7281 199.05 86.6536 199.458 84.7175 200.255C82.7815 201.053 81.0221 202.226 79.5403 203.705C78.0586 205.185 76.8836 206.943 76.083 208.878C75.2824 210.812 74.8718 212.886 74.8748 214.98Z" fill="#F0F0F0"/>
<path d="M254.998 228.48L97.1256 227.759L97.1485 222.908L255.009 223.629L254.998 228.48Z" fill="#E6E6E6"/>
<path d="M254.998 244.45L97.1256 243.718L97.1485 238.867L255.009 239.599L254.998 244.45Z" fill="#E6E6E6"/>
<path d="M192.54 254.836L192.516 259.686L254.978 259.992L255.001 255.141L192.54 254.836Z" fill="#E6E6E6"/>
<path d="M416.404 100.641C421.191 89.9985 416.445 77.4902 405.802 72.7028C395.16 67.9155 382.651 72.6619 377.864 83.3043C373.077 93.9467 377.823 106.455 388.466 111.242C399.108 116.03 411.616 111.283 416.404 100.641Z" fill="#F5F5F5"/>
<path d="M389.841 86.6466C390.63 86.5779 391.362 87.4588 391.454 88.6143C391.545 89.7697 390.985 90.765 390.184 90.8336C389.383 90.9023 388.651 90.0099 388.56 88.8545C388.468 87.6991 389.04 86.7038 389.841 86.6466Z" fill="#E0E0E0"/>
<path d="M391.694 81.2925C390.422 81.4499 389.163 81.7062 387.93 82.059C386.763 82.5925 385.638 83.2159 384.567 83.9237C385.344 82.8095 386.443 81.9599 387.718 81.4895C388.992 81.019 390.38 80.9503 391.694 81.2925Z" fill="#E0E0E0"/>
<path d="M403.271 86.3719C402.459 86.3719 401.773 87.2414 401.727 88.4083C401.681 89.5751 402.288 90.5247 403.1 90.559C403.912 90.5933 404.587 89.6781 404.633 88.5227C404.679 87.3672 404.072 86.3948 403.271 86.3719Z" fill="#E0E0E0"/>
<path d="M401.189 81.0982C402.482 80.6977 403.867 80.7023 405.157 81.1113C406.447 81.5202 407.582 82.314 408.408 83.3862C407.314 82.7162 406.166 82.1384 404.976 81.6587C403.73 81.3776 402.464 81.1903 401.189 81.0982Z" fill="#E0E0E0"/>
<path d="M407.55 91.7488C407.559 92.1354 407.508 92.5212 407.401 92.8928C407.132 93.9093 406.699 94.8752 406.12 95.7528C405.291 97.0735 404.196 98.2073 402.905 99.0818C401.328 100.199 399.467 100.845 397.537 100.946C395.607 101.048 393.688 100.599 392.003 99.6538C390.624 98.9139 389.413 97.8974 388.445 96.668C387.799 95.8475 387.289 94.9281 386.935 93.9453C386.775 93.5842 386.686 93.1959 386.672 92.8013C387.221 94.0734 387.933 95.2693 388.788 96.3591C389.736 97.4988 390.903 98.4363 392.22 99.1161C393.82 99.9826 395.627 100.391 397.444 100.296C399.261 100.201 401.016 99.6069 402.516 98.5785C403.768 97.7658 404.845 96.7119 405.685 95.4782C406.462 94.3189 407.089 93.0658 407.55 91.7488Z" fill="#E0E0E0"/>
<path d="M106.792 329.472H109.824L116.505 320.572V314.726C116.505 314.726 121.23 314.451 120.681 322.105C120.131 329.758 120.681 327.825 120.681 327.825C120.681 327.825 130.713 327.825 131.549 328.694C132.155 329.3 132.429 338.841 132.532 344.012C132.582 345.284 132.2 346.534 131.448 347.561C130.696 348.587 129.619 349.328 128.391 349.664C128.016 349.752 127.632 349.798 127.247 349.801C124.868 349.744 112.112 347.776 112.112 347.776H106.792V329.472Z" fill="#F0F0F0"/>
<path d="M98.0408 327.836L99.9169 347.845H105.156V328.236L98.0408 327.836Z" fill="#F0F0F0"/>
<path d="M527.384 155.492C526.663 154.72 525.668 154.26 524.612 154.21C523.556 154.161 522.523 154.527 521.733 155.229C520.948 155.857 520.31 156.65 519.866 157.551C519.421 158.453 519.18 159.441 519.159 160.446C518.973 159.44 518.569 158.487 517.976 157.653C517.384 156.819 516.616 156.124 515.727 155.618C514.843 155.022 513.763 154.794 512.714 154.982C511.665 155.17 510.731 155.76 510.11 156.625C509.439 157.813 509.235 159.208 509.538 160.537C509.736 161.879 510.298 163.141 511.162 164.187C514.331 167.55 515.967 168.088 519.891 170.364C523.46 167.596 524.616 166.932 527.293 163.123C528.015 161.973 528.41 160.648 528.437 159.291C528.564 157.938 528.19 156.586 527.384 155.492Z" fill="#F0F0F0"/>
<path d="M338.876 464.155L219.808 463.595C216.403 463.581 213.034 462.897 209.893 461.581C206.752 460.265 203.902 458.343 201.504 455.925C199.106 453.507 197.208 450.64 195.919 447.489C194.629 444.337 193.973 440.962 193.988 437.557L195.258 139.053C195.297 132.18 198.062 125.603 202.946 120.766C207.83 115.93 214.433 113.229 221.307 113.256L340.374 113.805C347.252 113.838 353.834 116.601 358.676 121.485C363.518 126.37 366.222 132.977 366.194 139.854L364.936 438.324C364.903 445.204 362.139 451.79 357.252 456.633C352.366 461.477 345.756 464.183 338.876 464.155Z" fill="#263238"/>
<path d="M340.203 124.078L317.117 123.975C316.364 123.987 315.62 124.148 314.929 124.448C314.238 124.748 313.613 125.181 313.09 125.723C312.567 126.265 312.157 126.905 311.882 127.607C311.607 128.308 311.473 129.057 311.488 129.81V133.997C311.503 134.75 311.37 135.498 311.095 136.2C310.82 136.901 310.409 137.541 309.886 138.083C309.363 138.625 308.738 139.059 308.047 139.359C307.356 139.659 306.613 139.819 305.86 139.831L260.832 139.625C260.078 139.607 259.335 139.441 258.645 139.134C257.956 138.828 257.333 138.389 256.815 137.841C256.296 137.294 255.89 136.649 255.622 135.944C255.353 135.239 255.226 134.488 255.249 133.734V129.547C255.272 128.792 255.146 128.041 254.877 127.336C254.608 126.631 254.203 125.987 253.684 125.439C253.165 124.891 252.543 124.452 251.853 124.146C251.164 123.839 250.421 123.673 249.667 123.655H241.544L221.375 123.552C218.99 123.541 216.625 124.001 214.417 124.904C212.209 125.807 210.2 127.137 208.506 128.816C206.812 130.496 205.465 132.493 204.542 134.693C203.619 136.893 203.139 139.253 203.129 141.639L201.893 432.993C201.875 437.81 203.769 442.437 207.161 445.859C210.552 449.28 215.163 451.215 219.98 451.239L338.807 451.789C341.193 451.799 343.557 451.34 345.765 450.436C347.973 449.533 349.982 448.204 351.676 446.524C353.371 444.845 354.718 442.848 355.64 440.648C356.563 438.448 357.043 436.088 357.054 433.702L358.289 142.348C358.301 139.961 357.843 137.595 356.941 135.384C356.038 133.174 354.709 131.164 353.03 129.467C351.35 127.771 349.353 126.422 347.152 125.497C344.951 124.572 342.59 124.09 340.203 124.078Z" fill="white"/>
<path d="M225.265 183.76C225.265 183.76 225.265 183.554 225.265 183.13C225.352 181.471 225.938 179.876 226.947 178.554C227.782 177.417 228.886 176.505 230.161 175.9C231.787 175.178 233.571 174.882 235.344 175.042H256.988L348.508 175.225H349.183L348.714 175.717L336.988 188.05L337.068 187.855V208.276C337.15 209.637 337.05 211.002 336.771 212.337C336.419 213.674 335.757 214.908 334.837 215.94C333.936 216.97 332.808 217.776 331.543 218.297C330.284 218.792 328.936 219.022 327.584 218.972H290.244L240.24 218.869H234.978C233.293 218.998 231.604 218.695 230.07 217.988C228.674 217.314 227.482 216.282 226.614 214.998C225.747 213.715 225.234 212.224 225.128 210.678C225.128 204.958 225.128 200.142 225.128 196.149C225.128 192.157 225.128 189.091 225.185 186.997C225.185 185.956 225.185 185.167 225.185 184.606C225.185 184.046 225.185 183.794 225.185 183.794C225.185 183.794 225.185 184.069 225.185 184.606C225.185 185.144 225.185 185.956 225.185 186.997C225.185 189.114 225.185 192.202 225.185 196.149C225.185 200.096 225.185 205.015 225.265 210.655C225.375 212.138 225.875 213.566 226.715 214.794C227.554 216.022 228.704 217.005 230.047 217.645C231.529 218.322 233.16 218.606 234.783 218.469H240.24L290.301 218.411H319.862H327.619C328.892 218.464 330.162 218.249 331.348 217.782C332.531 217.295 333.588 216.543 334.437 215.586C335.29 214.622 335.902 213.469 336.222 212.222C336.491 210.937 336.588 209.621 336.508 208.31V187.752L336.588 187.672L348.325 175.34L348.542 175.832L257.022 175.443L241.647 175.363H235.366C233.634 175.192 231.886 175.464 230.287 176.152C229.032 176.731 227.94 177.612 227.107 178.715C226.49 179.519 226.018 180.425 225.711 181.392C225.49 182.165 225.34 182.958 225.265 183.76Z" fill="#455A64"/>
<path d="M322.86 191.081L237.323 190.681L237.334 188.05L322.86 188.45V191.081Z" fill="#455A64"/>
<path d="M322.86 199.73L237.323 199.329L237.334 196.698L322.86 197.099V199.73Z" fill="#455A64"/>
<path d="M289.009 205.354L288.996 207.985L322.835 208.151L322.848 205.52L289.009 205.354Z" fill="#455A64"/>
<path d="M341.553 241.692V268.004C341.553 270.286 340.647 272.476 339.034 274.091C337.421 275.706 335.232 276.615 332.95 276.618H238.684C236.399 276.618 234.208 275.711 232.593 274.095C230.977 272.48 230.07 270.288 230.07 268.004V245.776L218.344 233.444L332.904 233.089C334.037 233.083 335.161 233.301 336.21 233.731C337.259 234.16 338.213 234.793 339.017 235.592C339.82 236.392 340.458 237.342 340.893 238.389C341.329 239.436 341.553 240.558 341.553 241.692Z" fill="#42D1C0"/>
<path d="M243.969 249.013L329.506 248.613L329.495 245.982L243.958 246.382L243.969 249.013Z" fill="white"/>
<path d="M243.969 257.662L329.506 257.262L329.495 254.642L243.958 255.031L243.969 257.662Z" fill="white"/>
<path d="M277.78 263.302L243.941 263.468L243.954 266.099L277.793 265.934L277.78 263.302Z" fill="white"/>
<path d="M227.244 301.603C227.224 301.398 227.224 301.191 227.244 300.985C227.313 300.367 227.512 299.771 227.828 299.235C228.352 298.347 229.157 297.659 230.116 297.279C231.441 296.917 232.82 296.797 234.188 296.924H260.42L348.748 297.107H349.423L348.92 297.576L337.366 309.977L337.446 309.771V318.065C337.446 318.683 337.446 319.209 337.446 319.896C337.398 320.86 337.064 321.788 336.485 322.561C335.906 323.334 335.109 323.915 334.197 324.231C333.597 324.435 332.965 324.528 332.332 324.506H320.011H293.344L248.248 324.414H232.815C232.153 324.45 231.49 324.412 230.836 324.3C229.915 324.1 229.075 323.629 228.422 322.949C227.77 322.268 227.336 321.408 227.175 320.479C227.108 319.914 227.085 319.344 227.107 318.775C227.107 316.59 227.107 314.599 227.107 312.803C227.107 309.222 227.107 306.442 227.164 304.52C227.164 303.594 227.164 302.884 227.164 302.37C227.164 301.855 227.164 301.637 227.164 301.637C227.164 301.637 227.164 301.889 227.164 302.37C227.164 302.85 227.164 303.594 227.164 304.52C227.164 306.442 227.164 309.222 227.221 312.803C227.221 314.599 227.221 316.59 227.221 318.775C227.202 319.325 227.229 319.876 227.301 320.422C227.452 321.29 227.859 322.093 228.471 322.728C229.083 323.362 229.871 323.798 230.733 323.98C231.365 324.075 232.005 324.105 232.644 324.071H239.096H248.248L293.39 324.003H332.366C332.929 324.023 333.491 323.942 334.025 323.762C335.098 323.386 335.978 322.601 336.473 321.577C336.718 321.069 336.858 320.516 336.885 319.953C336.885 319.381 336.885 318.752 336.885 318.157V309.748L336.965 309.668L348.542 297.29L348.748 297.782L260.432 297.405L234.2 297.233C232.858 297.085 231.501 297.186 230.196 297.53C229.455 297.824 228.804 298.305 228.306 298.927C227.808 299.549 227.482 300.29 227.358 301.077C227.33 301.254 227.291 301.43 227.244 301.603Z" fill="#455A64"/>
<path d="M326.692 308.536L241.155 308.147L241.167 305.516L326.703 305.916L326.692 308.536Z" fill="#455A64"/>
<path d="M291.999 314.198L291.986 316.829L326.695 316.999L326.707 314.368L291.999 314.198Z" fill="#455A64"/>
<path d="M338.544 348.53V366.548C338.544 367.762 338.062 368.926 337.204 369.784C336.345 370.642 335.182 371.124 333.968 371.124H233.227C232.014 371.124 230.85 370.642 229.992 369.784C229.133 368.926 228.651 367.762 228.651 366.548V356.698L217.085 344.32L333.968 343.954C335.182 343.954 336.345 344.436 337.204 345.294C338.062 346.152 338.544 347.316 338.544 348.53Z" fill="#42D1C0"/>
<path d="M239.107 355.463L324.644 355.074L324.633 352.442L239.096 352.843L239.107 355.463Z" fill="white"/>
<path d="M239.107 363.928L324.644 363.528L324.633 360.908L239.096 361.297L239.107 363.928Z" fill="white"/>
<path d="M476.419 154.131C483.83 154.131 489.838 148.123 489.838 140.712C489.838 133.301 483.83 127.293 476.419 127.293C469.008 127.293 463 133.301 463 140.712C463 148.123 469.008 154.131 476.419 154.131Z" fill="#42D1C0"/>
<path opacity="0.5" d="M476.419 154.131C483.83 154.131 489.838 148.123 489.838 140.712C489.838 133.301 483.83 127.293 476.419 127.293C469.008 127.293 463 133.301 463 140.712C463 148.123 469.008 154.131 476.419 154.131Z" fill="white"/>
<path d="M471.969 136.868C472.472 136.868 472.93 137.406 472.975 138.138C473.021 138.87 472.644 139.499 472.129 139.522C471.614 139.545 471.168 138.985 471.122 138.252C471.076 137.52 471.454 136.891 471.969 136.868Z" fill="#263238"/>
<path d="M473.216 133.493C473.216 133.688 472.072 133.631 470.928 134.065C469.784 134.5 468.857 135.209 468.72 135.072C468.582 134.935 469.28 133.928 470.699 133.425C472.117 132.921 473.273 133.322 473.216 133.493Z" fill="#263238"/>
<path d="M482.94 138.962C482.791 139.076 482.07 138.298 480.915 138.184C479.759 138.069 478.89 138.653 478.775 138.515C478.661 138.378 478.867 138.184 479.244 137.921C479.766 137.593 480.382 137.448 480.995 137.509C481.606 137.575 482.175 137.85 482.608 138.287C482.928 138.63 483.008 138.904 482.94 138.962Z" fill="#263238"/>
<path d="M484.095 136.719C483.992 136.88 482.951 136.319 481.452 136.273C479.954 136.227 478.867 136.685 478.775 136.502C479.12 136.147 479.546 135.879 480.015 135.722C480.485 135.565 480.986 135.522 481.475 135.598C483.145 135.655 484.209 136.594 484.095 136.719Z" fill="#263238"/>
<path d="M483.145 140.449C483.152 141.376 482.855 142.28 482.299 143.023C481.714 144.001 480.893 144.817 479.91 145.395C478.928 145.973 477.815 146.294 476.676 146.33C475.537 146.365 474.407 146.113 473.39 145.597C472.373 145.081 471.503 144.318 470.859 143.377C470.25 142.677 469.899 141.789 469.864 140.861C470.257 141.66 470.716 142.425 471.236 143.149C471.874 143.965 472.695 144.619 473.633 145.059C474.571 145.498 475.599 145.71 476.634 145.678C477.67 145.646 478.683 145.37 479.591 144.873C480.5 144.376 481.279 143.671 481.864 142.817C482.346 142.059 482.774 141.267 483.145 140.449Z" fill="#263238"/>
<path d="M100.924 378.081C100.809 381.811 99.5906 385.424 97.4228 388.463C95.2549 391.502 92.235 393.829 88.7445 395.152C85.2541 396.474 81.4499 396.732 77.8129 395.893C74.1758 395.054 70.8692 393.155 68.3111 390.437C65.7529 387.719 64.058 384.304 63.4406 380.622C62.8232 376.941 63.311 373.16 64.8424 369.756C66.3738 366.352 68.8801 363.478 72.0443 361.498C75.2085 359.518 78.8887 358.521 82.6196 358.633C85.0988 358.707 87.5391 359.268 89.801 360.286C92.063 361.304 94.1022 362.757 95.8021 364.563C97.502 366.369 98.8292 368.493 99.708 370.812C100.587 373.132 101 375.601 100.924 378.081Z" fill="#42D1C0"/>
<path opacity="0.5" d="M100.924 378.081C100.809 381.811 99.5906 385.424 97.4228 388.463C95.2549 391.502 92.235 393.829 88.7445 395.152C85.2541 396.474 81.4499 396.732 77.8129 395.893C74.1758 395.054 70.8692 393.155 68.3111 390.437C65.7529 387.719 64.058 384.304 63.4406 380.622C62.8232 376.941 63.311 373.16 64.8424 369.756C66.3738 366.352 68.8801 363.478 72.0443 361.498C75.2085 359.518 78.8887 358.521 82.6196 358.633C85.0988 358.707 87.5391 359.268 89.801 360.286C92.063 361.304 94.1022 362.757 95.8021 364.563C97.502 366.369 98.8292 368.493 99.708 370.812C100.587 373.132 101 375.601 100.924 378.081Z" fill="white"/>
<path d="M78.3411 372.315C78.0073 371.88 77.5169 371.592 76.9742 371.513C76.4315 371.434 75.8793 371.57 75.4353 371.891C75.0056 372.181 74.6433 372.56 74.3729 373.002C74.1025 373.444 73.9303 373.94 73.868 374.454C73.82 373.93 73.6604 373.421 73.4 372.964C73.1395 372.506 72.7842 372.109 72.3579 371.8C71.9293 371.456 71.3849 371.291 70.8376 371.338C70.2902 371.385 69.7819 371.64 69.4179 372.052C69.0183 372.629 68.8471 373.334 68.9374 374.031C68.9759 374.729 69.2011 375.405 69.5895 375.987C70.7512 377.44 72.1754 378.663 73.7879 379.591C75.3777 378.75 76.7882 377.608 77.9407 376.227C78.3611 375.67 78.6257 375.01 78.7071 374.317C78.8403 373.627 78.7096 372.913 78.3411 372.315Z" fill="#42D1C0"/>
<path d="M94.952 372.784C94.6184 372.348 94.1269 372.061 93.5834 371.984C93.0399 371.906 92.4879 372.046 92.0462 372.372C91.6134 372.658 91.2487 373.036 90.9779 373.479C90.7071 373.922 90.5368 374.419 90.479 374.935C90.4309 374.41 90.2714 373.902 90.0109 373.444C89.7505 372.986 89.3952 372.59 88.9689 372.281C88.5413 371.934 87.9963 371.767 87.4481 371.814C86.9 371.861 86.3913 372.118 86.0288 372.532C85.6272 373.109 85.4558 373.815 85.5483 374.511C85.5811 375.211 85.8068 375.888 86.2004 376.468C87.3622 377.921 88.7863 379.143 90.3989 380.071C91.9837 379.223 93.3929 378.082 94.5516 376.708C94.9725 376.146 95.237 375.483 95.3181 374.786C95.449 374.096 95.3185 373.383 94.952 372.784Z" fill="#42D1C0"/>
<path d="M88.1795 382.153C87.9937 383.715 87.2235 385.148 86.0238 386.165C84.8242 387.182 83.284 387.707 81.713 387.634C80.1421 387.562 78.6568 386.897 77.5558 385.774C76.4548 384.651 75.8199 383.153 75.7786 381.581L88.1795 382.153Z" fill="white"/>
<path d="M435.406 498.692L433.118 486.612L411.44 490.456L414.586 508.565L415.947 508.416C421.999 507.696 446.56 503.943 450.336 501.964C454.603 499.756 435.406 498.692 435.406 498.692Z" fill="#42D1C0"/>
<path d="M450.736 500.763C450.736 500.969 442.728 502.628 432.707 504.47C422.685 506.312 414.586 507.639 414.551 507.433C414.517 507.227 422.559 505.579 432.569 503.737C442.579 501.896 450.667 500.569 450.736 500.763Z" fill="#263238"/>
<path d="M436.241 501.072C436.047 501.003 436.081 500.34 436.436 499.631C436.791 498.921 437.283 498.487 437.454 498.589C437.626 498.692 437.454 499.287 437.099 499.951C436.745 500.614 436.436 501.152 436.241 501.072Z" fill="#263238"/>
<path d="M437.774 501.633C437.569 501.633 437.534 500.866 437.774 500.031C438.015 499.196 438.541 498.647 438.724 498.738C438.907 498.83 438.724 499.505 438.484 500.271C438.244 501.038 437.98 501.667 437.774 501.633Z" fill="#263238"/>
<path d="M420.992 506.151C420.912 506.231 420.534 505.968 419.962 505.522C419.254 504.932 418.487 504.414 417.674 503.978C416.938 503.574 416.112 503.362 415.272 503.36C414.597 503.36 414.185 503.577 414.128 503.474C414.071 503.371 414.425 503.028 415.203 502.834C416.209 502.633 417.253 502.791 418.155 503.28C419.025 503.748 419.8 504.372 420.443 505.122C420.855 505.648 421.095 506.083 420.992 506.151Z" fill="#263238"/>
<path d="M435.864 498.784C436.001 498.933 435.704 499.425 435.132 499.768C434.56 500.111 433.988 500.134 433.919 499.939C433.851 499.745 434.251 499.425 434.754 499.116C435.258 498.807 435.75 498.647 435.864 498.784Z" fill="#263238"/>
<path d="M435.338 497.697C435.338 497.903 434.846 498.178 434.114 498.326C433.382 498.475 432.775 498.418 432.752 498.212C432.73 498.006 433.279 497.732 433.965 497.594C434.651 497.457 435.281 497.503 435.338 497.697Z" fill="#263238"/>
<path d="M461.49 370.965C454.774 357.408 418.784 304.968 418.784 304.968L399.576 306.981V306.867L378.081 309.223L366.229 310.527L409.14 497.949L438.816 497.411L431.677 462.737C436.585 450.439 465.208 378.47 461.49 370.965ZM430.876 379.053L420.271 407.527L408.259 349.183L430.876 379.053Z" fill="#263238"/>
<path d="M407.07 218.401C406.795 216.445 407.848 208.311 407.848 208.311C407.848 208.311 415.318 207.762 416.016 200.394C416.713 193.027 416.794 175.97 416.794 175.97L403.443 168.9L388.148 179.722L384.19 190.018L389.406 202.808L389.246 207.041V216.731L407.07 218.401Z" fill="#FFBE9D"/>
<path d="M415.798 188.325C415.794 188.513 415.733 188.696 415.625 188.85C415.516 189.004 415.364 189.121 415.188 189.189C415.012 189.256 414.82 189.269 414.637 189.227C414.453 189.185 414.287 189.09 414.158 188.953C414.029 188.815 413.943 188.643 413.912 188.457C413.882 188.272 413.907 188.081 413.984 187.91C414.062 187.738 414.189 187.594 414.349 187.495C414.509 187.395 414.695 187.346 414.883 187.353C415.007 187.356 415.13 187.383 415.243 187.434C415.357 187.485 415.459 187.557 415.544 187.648C415.629 187.738 415.695 187.845 415.739 187.961C415.783 188.077 415.803 188.201 415.798 188.325Z" fill="#263238"/>
<path d="M415.867 187.33C415.741 187.456 415.055 186.838 414.048 186.747C413.041 186.655 412.252 187.124 412.149 186.987C412.046 186.85 412.229 186.701 412.572 186.483C413.033 186.206 413.571 186.086 414.105 186.14C414.636 186.185 415.139 186.402 415.535 186.758C415.833 187.044 415.924 187.284 415.867 187.33Z" fill="#263238"/>
<path d="M403.832 187.17C403.984 187.281 404.099 187.434 404.163 187.61C404.228 187.787 404.238 187.978 404.194 188.161C404.15 188.343 404.052 188.508 403.914 188.635C403.775 188.763 403.603 188.846 403.417 188.875C403.231 188.903 403.042 188.876 402.871 188.797C402.701 188.718 402.558 188.59 402.46 188.43C402.363 188.269 402.315 188.084 402.323 187.896C402.331 187.708 402.394 187.527 402.505 187.376C402.579 187.275 402.671 187.19 402.778 187.125C402.884 187.06 403.003 187.017 403.126 186.998C403.249 186.979 403.375 186.984 403.496 187.014C403.617 187.043 403.731 187.096 403.832 187.17Z" fill="#263238"/>
<path d="M404.576 186.975C404.45 187.09 403.775 186.472 402.757 186.392C401.738 186.312 400.961 186.769 400.858 186.621C400.755 186.472 400.938 186.346 401.281 186.129C401.741 185.851 402.278 185.726 402.814 185.774C403.35 185.822 403.856 186.043 404.255 186.403C404.553 186.678 404.644 186.918 404.576 186.975Z" fill="#263238"/>
<path d="M407.973 195.693C408.521 195.57 409.082 195.517 409.643 195.532C409.907 195.532 410.158 195.532 410.227 195.315C410.262 195.03 410.218 194.742 410.101 194.48C409.907 193.805 409.701 193.096 409.472 192.352C408.877 190.539 408.419 188.685 408.099 186.804C408.354 187.303 408.553 187.829 408.694 188.371C409.014 189.355 409.438 190.716 409.838 192.238C410.044 192.981 410.25 193.702 410.433 194.377C410.577 194.717 410.602 195.097 410.501 195.452C410.46 195.541 410.398 195.619 410.321 195.679C410.243 195.739 410.152 195.779 410.055 195.796C409.907 195.817 409.757 195.817 409.609 195.796C409.062 195.826 408.513 195.792 407.973 195.693Z" fill="#263238"/>
<path d="M404.587 196.539C403.569 195.83 407.367 198.335 409.449 198.392C409.06 198.905 408.508 199.269 407.884 199.425C407.26 199.581 406.601 199.519 406.017 199.25C403.901 198.255 404.587 196.539 404.587 196.539Z" fill="white"/>
<path d="M407.847 208.311C404.343 208.053 400.985 206.798 398.169 204.696C398.169 204.696 400.206 210.187 407.63 210.118L407.847 208.311Z" fill="#EB996E"/>
<path d="M390.276 192.078C390.276 192.078 390.173 192.158 389.99 192.261C389.732 192.382 389.438 192.402 389.166 192.318C388.743 192.086 388.391 191.745 388.146 191.331C387.9 190.916 387.77 190.443 387.77 189.961C387.719 189.422 387.789 188.879 387.976 188.371C388.023 188.172 388.119 187.987 388.255 187.833C388.391 187.68 388.562 187.562 388.754 187.49C388.877 187.447 389.01 187.448 389.132 187.494C389.253 187.54 389.355 187.628 389.418 187.742C389.509 187.913 389.475 188.051 389.509 188.051C389.543 188.051 389.646 187.936 389.578 187.685C389.533 187.531 389.436 187.397 389.303 187.307C389.214 187.245 389.113 187.202 389.007 187.181C388.901 187.159 388.792 187.159 388.685 187.181C388.431 187.248 388.197 187.378 388.007 187.56C387.816 187.743 387.676 187.971 387.599 188.222C387.365 188.786 387.27 189.399 387.324 190.007C387.331 190.569 387.502 191.117 387.817 191.583C388.133 192.049 388.578 192.412 389.097 192.627C389.268 192.666 389.445 192.666 389.616 192.627C389.786 192.587 389.946 192.509 390.081 192.398C390.276 192.192 390.299 192.089 390.276 192.078Z" fill="#EB996E"/>
<path d="M418.704 177.194C418.301 177.329 417.882 177.41 417.457 177.434C418.848 176.704 419.991 175.578 420.74 174.197C421.288 173.243 421.577 172.162 421.577 171.062C421.577 169.962 421.288 168.882 420.74 167.928C420.15 167.005 419.24 166.332 418.186 166.037C417.131 165.741 416.004 165.844 415.02 166.326C415.399 165.539 415.479 164.641 415.246 163.799C415.012 162.958 414.481 162.229 413.751 161.75C412.991 161.3 412.141 161.026 411.262 160.949C410.382 160.872 409.497 160.993 408.671 161.304C407.024 161.939 405.481 162.818 404.095 163.912C403.992 163.321 403.747 162.762 403.383 162.284C403.019 161.807 402.545 161.423 402.002 161.167C400.909 160.66 399.686 160.504 398.501 160.721C396.78 161.015 395.191 161.832 393.949 163.06C392.707 164.287 391.872 165.867 391.557 167.585C391.017 167.031 390.343 166.625 389.601 166.407C388.859 166.189 388.073 166.166 387.319 166.339C386.565 166.513 385.869 166.877 385.297 167.398C384.724 167.919 384.296 168.578 384.052 169.312C384.057 169.365 384.057 169.419 384.052 169.472C383.367 169.77 382.791 170.273 382.405 170.914C382.08 171.46 381.879 172.071 381.818 172.704C381.757 173.337 381.836 173.976 382.05 174.574C382.488 175.75 383.29 176.756 384.338 177.446C384.74 177.728 385.095 178.072 385.391 178.464C385.617 178.806 385.755 179.199 385.791 179.608C385.688 182.079 384.43 184.413 383.812 186.838C382.965 190.201 384.83 194.789 385.906 198.084C386.981 201.378 387.358 202.66 389.452 202.923L389.772 194.068C387.484 195.944 384.43 189.492 386.432 186.918C388.434 184.344 390.562 185.225 390.928 186.85C391.069 187.474 391.249 188.089 391.465 188.691H393.753L393.502 186.758C393.502 186.758 393.033 178.167 397.14 177.606C398.212 177.379 399.33 177.584 400.251 178.178C401.575 178.711 403.008 178.911 404.427 178.761C405.891 178.761 407.859 177.091 407.859 175.638C408.697 176.616 409.759 177.377 410.954 177.857C412.148 178.337 413.441 178.522 414.723 178.395C415.385 178.326 416.036 178.168 416.656 177.926C417.43 178.141 418.25 178.121 419.013 177.869C419.798 177.614 420.485 177.123 420.981 176.462C421.347 175.947 421.415 175.558 421.347 175.524C420.593 176.261 419.693 176.83 418.704 177.194ZM384.613 176.92C383.681 176.272 382.97 175.353 382.577 174.288C382.391 173.772 382.319 173.222 382.364 172.675C382.409 172.129 382.572 171.598 382.84 171.12C383.08 170.66 383.43 170.268 383.858 169.976C383.469 172.572 385.162 175.204 385.608 177.915C385.333 177.546 385.014 177.212 384.659 176.92H384.613Z" fill="#263238"/>
<path d="M458.035 187.936V202.683C458.035 204.288 458.672 205.827 459.807 206.962C460.942 208.097 462.482 208.734 464.087 208.734H489.632V217.166L494.208 209.1C495.564 209.002 496.832 208.394 497.757 207.399C498.682 206.403 499.197 205.094 499.196 203.735V187.936C499.194 187.136 499.034 186.344 498.724 185.605C498.415 184.867 497.961 184.198 497.391 183.636C496.821 183.074 496.145 182.631 495.402 182.332C494.659 182.034 493.865 181.885 493.064 181.896H464.087C462.484 181.896 460.946 182.532 459.811 183.665C458.677 184.797 458.038 186.333 458.035 187.936Z" fill="#42D1C0"/>
<path d="M471.934 196.093C471.934 196.586 471.788 197.068 471.514 197.479C471.24 197.889 470.851 198.208 470.395 198.397C469.939 198.586 469.438 198.635 468.954 198.539C468.47 198.443 468.026 198.205 467.677 197.857C467.328 197.508 467.091 197.063 466.994 196.58C466.898 196.096 466.948 195.594 467.136 195.139C467.325 194.683 467.645 194.293 468.055 194.019C468.465 193.745 468.947 193.599 469.44 193.599C470.102 193.599 470.736 193.862 471.204 194.33C471.672 194.797 471.934 195.432 471.934 196.093Z" fill="white"/>
<path d="M481.407 196.093C481.407 196.586 481.26 197.068 480.986 197.479C480.712 197.889 480.323 198.208 479.867 198.397C479.411 198.586 478.91 198.635 478.426 198.539C477.942 198.443 477.498 198.205 477.149 197.857C476.8 197.508 476.563 197.063 476.467 196.58C476.371 196.096 476.42 195.594 476.609 195.139C476.797 194.683 477.117 194.293 477.527 194.019C477.937 193.745 478.42 193.599 478.913 193.599C479.574 193.599 480.209 193.862 480.676 194.33C481.144 194.797 481.407 195.432 481.407 196.093Z" fill="white"/>
<path d="M490.879 196.093C490.879 196.586 490.733 197.068 490.459 197.479C490.185 197.889 489.795 198.208 489.339 198.397C488.884 198.586 488.382 198.635 487.899 198.539C487.415 198.443 486.97 198.205 486.622 197.857C486.273 197.508 486.035 197.063 485.939 196.58C485.843 196.096 485.892 195.594 486.081 195.139C486.27 194.683 486.589 194.293 486.999 194.019C487.41 193.745 487.892 193.599 488.385 193.599C489.046 193.599 489.681 193.862 490.149 194.33C490.616 194.797 490.879 195.432 490.879 196.093Z" fill="white"/>
<path d="M478.192 231.763C477.677 230.619 445.188 259.299 438.713 260.283L419.768 235.595C419.768 235.595 415.833 229.361 407.378 218.676C401.933 211.812 386.889 213.207 382.931 221.616C376.216 235.881 375.987 254.792 370.793 285.176L366.4 310.951C366.4 310.951 372.887 310.184 372.864 310.241L418.99 305.448L420.134 274.56C429.286 283.804 432.077 285.737 436.825 285.005C448.757 283.151 490.502 245.605 490.502 245.605C490.502 245.605 478.695 232.93 478.192 231.763Z" fill="#455A64"/>
<path d="M484.873 250.856C484.039 250.349 483.271 249.742 482.585 249.049C479.016 245.88 475.905 242.23 473.341 238.204C472.763 237.398 472.29 236.521 471.934 235.595C472.553 236.338 473.115 237.126 473.616 237.952C474.668 239.428 476.167 241.441 477.963 243.546C479.759 245.651 481.498 247.447 482.791 248.729C483.543 249.379 484.239 250.091 484.873 250.856Z" fill="#263238"/>
<path d="M436.871 270.064C437.067 266.747 437.651 263.464 438.61 260.283C438.428 263.602 437.844 266.886 436.871 270.064Z" fill="#263238"/>
<path d="M441.012 269.046C440.342 267.702 439.853 266.275 439.559 264.802C439.068 263.384 438.772 261.906 438.678 260.409C439.342 261.755 439.831 263.182 440.131 264.653C440.615 266.073 440.912 267.549 441.012 269.046Z" fill="#263238"/>
<path opacity="0.2" d="M395.641 242.151L419.654 287.544L420.191 274.08L395.641 242.151Z" fill="black"/>
<path d="M394.085 239.943C394.504 240.367 394.887 240.826 395.229 241.315L398.089 245.148C400.503 248.397 403.878 252.847 407.664 257.732L417.388 270.19L420.306 273.988C420.682 274.439 421.019 274.921 421.312 275.429C420.897 275.03 420.514 274.598 420.168 274.137C419.379 273.176 418.349 271.94 417.102 270.453C414.54 267.318 411.028 262.971 407.241 258.098C403.455 253.224 400.126 248.717 397.792 245.411C396.648 243.752 395.698 242.402 395.08 241.453C394.704 240.98 394.371 240.475 394.085 239.943Z" fill="#263238"/>
<path d="M394.84 254.128C394.645 253.685 394.502 253.221 394.417 252.744C394.188 251.84 393.891 250.547 393.536 248.957L393.891 249.129L389.166 251.68L388.846 251.852L388.743 251.497C388.571 250.879 388.388 250.227 388.194 249.564L387.37 246.601L387.793 246.772L383.137 249.392L382.851 249.552V249.232C382.58 247.82 382.42 246.39 382.371 244.953C382.785 246.331 383.091 247.738 383.286 249.163L382.954 249.003L387.53 246.269L387.85 246.074L387.953 246.441C388.216 247.39 388.502 248.385 388.788 249.403C388.983 250.067 389.166 250.719 389.338 251.337L388.914 251.165L393.685 248.683L393.971 248.523L394.028 248.843C394.325 250.433 394.566 251.749 394.703 252.664C394.81 253.144 394.856 253.636 394.84 254.128Z" fill="#263238"/>
<path d="M400.48 228.468C400.024 228.294 399.593 228.059 399.199 227.77C398.409 227.279 397.3 226.558 395.95 225.665L396.316 225.54C395.835 227.061 395.298 228.8 394.714 230.665L394.6 231.019L394.28 230.836L392.541 229.818L389.887 228.262L390.31 228.091L388.788 233.216L388.697 233.525L388.445 233.33C387.271 232.501 386.162 231.583 385.128 230.585C386.378 231.293 387.575 232.092 388.708 232.976L388.365 233.09C388.766 231.58 389.235 229.841 389.749 227.942L389.852 227.576L390.173 227.77L392.838 229.303L394.577 230.322L394.154 230.482L395.824 225.368L395.938 225.059L396.201 225.242C397.517 226.18 398.592 226.958 399.336 227.53C399.755 227.795 400.139 228.11 400.48 228.468Z" fill="#263238"/>
<path d="M417.331 237.288C416.929 237.012 416.564 236.685 416.244 236.316C415.581 235.664 414.643 234.714 413.522 233.548H413.911C413.11 234.932 412.195 236.499 411.222 238.204L411.039 238.513L410.765 238.261L409.289 236.9L407.001 234.806L407.459 234.726C406.498 236.453 405.617 238.021 404.85 239.382L404.69 239.668L404.484 239.428C403.522 238.351 402.643 237.204 401.853 235.996C402.92 236.958 403.914 237.998 404.827 239.107H404.461L406.944 234.383L407.127 234.051L407.401 234.303L409.689 236.396L411.154 237.769H410.707L413.476 233.193L413.648 232.918L413.865 233.159C415.009 234.303 415.833 235.355 416.427 236.064C416.784 236.428 417.088 236.84 417.331 237.288Z" fill="#E0E0E0"/>
<path d="M461.764 266.174C461.764 266.174 461.375 265.808 460.803 265.088C460.231 264.367 459.419 263.303 458.458 261.999H458.847L455.598 266.277L455.369 266.563L455.14 266.289L453.836 264.744L451.88 262.388H452.338L449.169 266.678L448.974 266.941L448.803 266.678C447.985 265.497 447.254 264.259 446.618 262.971C447.555 264.048 448.408 265.195 449.169 266.403H448.803C449.706 265.133 450.736 263.658 451.869 262.033L452.086 261.736L452.326 262.022L454.305 264.378L455.598 265.923H455.14L458.47 261.713L458.675 261.45L458.858 261.713C459.785 263.051 460.529 264.15 461.044 264.928C461.328 265.316 461.57 265.734 461.764 266.174Z" fill="#263238"/>
<path d="M434.251 263.864C433.84 263.628 433.456 263.348 433.107 263.028C432.375 262.456 431.334 261.621 430.087 260.603L430.464 260.512L428.291 265.408L428.154 265.74L427.856 265.522L426.22 264.378L423.738 262.548L424.184 262.422C423.429 264.253 422.742 265.854 422.136 267.353L422.01 267.662L421.781 267.433C420.699 266.492 419.693 265.467 418.773 264.367C419.943 265.197 421.048 266.115 422.079 267.113L421.724 267.193C422.285 265.728 422.937 264.047 423.646 262.216L423.783 261.862L424.081 262.079L426.575 263.886L428.199 265.03L427.753 265.156L429.972 260.26L430.11 259.963L430.35 260.168C431.563 261.244 432.558 262.125 433.244 262.754C433.931 263.383 434.285 263.818 434.251 263.864Z" fill="#E0E0E0"/>
<path d="M473.616 257.4C473.46 256.941 473.361 256.464 473.319 255.981C473.181 255.055 472.998 253.693 472.792 252.138L473.135 252.332L468.193 254.46L467.862 254.597L467.793 254.243C467.679 253.602 467.553 252.938 467.427 252.263C467.232 251.211 467.049 250.204 466.878 249.232L467.278 249.438L462.416 251.68L462.119 251.806V251.486C461.978 250.056 461.951 248.618 462.039 247.184C462.323 248.594 462.495 250.025 462.553 251.463L462.245 251.268L467.061 248.98L467.393 248.809L467.461 249.186C467.644 250.158 467.839 251.165 468.033 252.206C468.159 252.893 468.274 253.556 468.388 254.185L467.987 253.968L472.964 251.943L473.273 251.817V252.138C473.422 253.751 473.536 255.078 473.593 256.004C473.654 256.467 473.661 256.935 473.616 257.4Z" fill="#E0E0E0"/>
<path d="M418.773 245.205C418.398 245.502 417.991 245.755 417.56 245.96C416.759 246.418 415.592 247.104 414.128 247.825L414.197 247.436L417.937 251.291L418.189 251.554L417.88 251.749L416.164 252.79L413.533 254.391V253.934L417.308 257.709L417.537 257.949L417.24 258.075C415.952 258.711 414.617 259.247 413.247 259.677C414.466 258.913 415.739 258.24 417.057 257.663L416.999 258.029L413.133 254.346L412.858 254.094L413.178 253.899L415.81 252.286L417.526 251.245V251.691C416.187 250.273 414.94 248.934 413.853 247.768L413.625 247.527L413.922 247.39C415.375 246.681 416.576 246.097 417.411 245.72C417.84 245.488 418.298 245.315 418.773 245.205Z" fill="#263238"/>
<path d="M439.765 270.064C439.39 270.375 438.979 270.64 438.541 270.853C437.74 271.311 436.573 271.997 435.109 272.707L435.166 272.329L438.918 276.184L439.17 276.436L438.861 276.631L437.145 277.683L434.503 279.273L434.56 278.827L438.335 282.602L438.564 282.831L438.266 282.957C436.977 283.591 435.642 284.13 434.274 284.57C435.515 283.807 436.811 283.138 438.152 282.568L438.083 282.934L434.228 279.25L433.953 278.987L434.274 278.793L436.894 277.191L438.621 276.139L438.564 276.596L434.892 272.672L434.663 272.432L434.949 272.295C436.402 271.574 437.603 271.002 438.449 270.613C438.862 270.374 439.305 270.189 439.765 270.064Z" fill="#E0E0E0"/>
<path d="M398.112 269.732C397.92 269.284 397.778 268.816 397.689 268.337C397.46 267.433 397.163 266.14 396.808 264.561L397.163 264.722L392.392 267.296L392.072 267.479L391.98 267.124C391.797 266.495 391.614 265.843 391.431 265.179C391.145 264.161 390.859 263.166 390.596 262.216L391.019 262.388L386.375 265.008L386.089 265.168V264.847C385.826 263.438 385.665 262.012 385.608 260.58C386.025 261.953 386.331 263.357 386.523 264.779L386.192 264.619L390.768 261.884L391.088 261.701L391.191 262.056C391.454 263.006 391.74 264.001 392.037 265.019L392.575 266.964L392.152 266.781L396.922 264.298L397.208 264.15L397.277 264.458C397.574 266.049 397.803 267.364 397.952 268.279C398.063 268.756 398.116 269.243 398.112 269.732Z" fill="#E0E0E0"/>
<path d="M417.171 280.532C416.977 280.084 416.835 279.616 416.748 279.136C416.519 278.232 416.222 276.94 415.867 275.361L416.222 275.521L411.508 278.095L411.188 278.278L411.085 277.923C410.902 277.294 410.719 276.642 410.536 275.99C410.25 274.96 409.975 273.965 409.701 273.016L410.124 273.187L405.479 275.807L405.193 275.967V275.658C404.931 274.245 404.77 272.816 404.713 271.38C405.128 272.753 405.434 274.157 405.628 275.578L405.296 275.429L409.872 272.695L410.193 272.501L410.296 272.867C410.57 273.816 410.845 274.8 411.142 275.818L411.68 277.763L411.268 277.58L416.027 275.098L416.325 274.949L416.382 275.258C416.679 276.848 416.908 278.164 417.057 279.079C417.159 279.556 417.198 280.044 417.171 280.532Z" fill="#263238"/>
<path d="M389.2 304.304C389.005 303.861 388.863 303.396 388.777 302.92C388.548 302.016 388.251 300.723 387.896 299.145L388.251 299.305L383.537 301.879L383.217 302.05L383.114 301.696C382.931 301.078 382.748 300.426 382.565 299.762L381.741 296.799L382.153 296.971L377.52 299.636L377.234 299.797V299.476C376.97 298.064 376.81 296.634 376.754 295.198C377.167 296.575 377.473 297.983 377.669 299.408L377.337 299.247L381.913 296.513L382.233 296.319L382.336 296.685C382.611 297.634 382.885 298.63 383.183 299.648L383.721 301.581L383.309 301.41L388.068 298.927L388.365 298.767L388.422 299.087C388.72 300.678 388.949 301.993 389.097 302.908C389.199 303.366 389.233 303.836 389.2 304.304Z" fill="#E0E0E0"/>
<path d="M389.749 279.353C389.316 279.131 388.912 278.854 388.548 278.53C387.805 277.981 386.752 277.157 385.494 276.139L385.871 276.047L383.801 281.012L383.663 281.344L383.366 281.127C382.828 280.761 382.279 280.36 381.719 279.983L379.225 278.187L379.659 278.061L377.669 283.014L377.543 283.312L377.314 283.094C376.226 282.157 375.205 281.144 374.26 280.063C375.446 280.873 376.567 281.776 377.612 282.763L377.257 282.854C377.795 281.39 378.401 279.697 379.122 277.855L379.248 277.5L379.556 277.717L382.096 279.479L383.732 280.623L383.297 280.738L385.459 275.818L385.597 275.521L385.837 275.727C387.061 276.791 388.068 277.66 388.754 278.289C389.126 278.604 389.461 278.961 389.749 279.353Z" fill="#263238"/>
<path d="M399.725 280.028C399.381 280.365 398.997 280.657 398.581 280.898C397.815 281.413 396.694 282.133 395.321 282.991V282.602L399.336 286.183L399.599 286.435L399.302 286.641L397.666 287.785L395.149 289.558V289.112L399.256 292.635L399.496 292.853L399.222 293.001C397.979 293.724 396.682 294.351 395.344 294.877C396.507 294.027 397.73 293.263 399.004 292.589V292.956L394.886 289.524L394.6 289.283L394.909 289.066L397.414 287.281L399.05 286.137V286.595L395.115 282.946L394.875 282.717L395.149 282.557C396.545 281.744 397.7 281.081 398.524 280.635C398.898 280.383 399.301 280.18 399.725 280.028Z" fill="#263238"/>
<path d="M410.696 287.83C410.482 288.267 410.213 288.675 409.895 289.043C409.346 289.798 408.534 290.851 407.539 292.132L407.447 291.754L412.435 293.756L412.767 293.882L412.561 294.191L411.417 295.85L409.655 298.378L409.518 297.932L414.494 299.854L414.803 299.98L414.586 300.209C413.669 301.315 412.667 302.348 411.588 303.297C412.395 302.11 413.285 300.982 414.254 299.923L414.345 300.277L409.323 298.481L408.969 298.355L409.186 298.046C409.735 297.234 410.33 296.388 410.925 295.507C411.325 294.946 411.703 294.363 412.069 293.859L412.195 294.294L407.264 292.2L406.967 292.075L407.172 291.823C408.214 290.576 409.072 289.535 409.689 288.871C410.307 288.208 410.696 287.796 410.696 287.83Z" fill="#E0E0E0"/>
<path d="M404.473 306.478C404.473 306.478 404.473 306.603 404.599 306.855C404.724 307.107 404.793 307.507 404.93 307.999C405.205 308.994 405.617 310.47 406.074 312.381C406.532 314.291 407.115 316.625 407.516 319.405C407.788 320.92 407.585 322.483 406.932 323.878C406.208 325.424 405.217 326.83 404.004 328.031V327.836C407.001 342.067 411.199 362.007 415.856 384.064C420.374 405.8 424.413 425.419 427.296 439.662C428.726 446.778 429.858 452.544 430.602 456.536C430.979 458.527 431.254 460.083 431.425 461.112C431.551 461.644 431.612 462.19 431.608 462.737C431.608 462.737 431.517 462.187 431.311 461.135C431.105 460.082 430.773 458.515 430.373 456.559C429.538 452.544 428.348 446.801 426.884 439.719C423.909 425.476 419.825 405.845 415.306 384.167C410.73 362.087 406.589 342.136 403.638 327.905V327.79L403.718 327.71C406.143 325.274 407.779 322.196 407.15 319.428C406.784 316.671 406.223 314.314 405.8 312.404C405.376 310.493 405.01 309.052 404.759 308.011L404.484 306.867C404.465 306.738 404.461 306.607 404.473 306.478Z" fill="#455A64"/>
<path d="M380.38 309.223C380.38 309.223 380.563 309.475 380.735 310.001C380.979 310.741 381.125 311.511 381.169 312.289C381.359 314.903 380.57 317.493 378.957 319.559C377.345 321.624 375.022 323.016 372.441 323.466C371.687 323.607 370.918 323.653 370.153 323.603C369.867 323.608 369.584 323.558 369.318 323.455C369.318 323.34 370.53 323.455 372.395 323.054C374.827 322.519 376.995 321.152 378.526 319.189C380.057 317.226 380.854 314.789 380.78 312.301C380.708 311.268 380.574 310.24 380.38 309.223Z" fill="#455A64"/>
<path d="M399.542 310.447C399.542 310.447 399.542 310.276 399.817 310.127C399.988 310.028 400.177 309.964 400.374 309.938C400.57 309.913 400.77 309.926 400.961 309.978C401.257 310.051 401.524 310.211 401.728 310.437C401.932 310.664 402.063 310.946 402.105 311.248C402.16 311.627 402.088 312.013 401.899 312.345C401.71 312.678 401.415 312.938 401.061 313.084C400.708 313.23 400.316 313.253 399.947 313.151C399.578 313.048 399.255 312.825 399.027 312.518C398.84 312.28 398.723 311.994 398.689 311.693C398.654 311.392 398.704 311.088 398.833 310.813C399.302 309.887 400.057 309.864 400.034 309.933C400.011 310.001 399.485 310.207 399.233 310.962C399.159 311.165 399.14 311.385 399.178 311.598C399.216 311.811 399.31 312.01 399.451 312.175C399.621 312.367 399.844 312.505 400.092 312.572C400.34 312.64 400.602 312.632 400.846 312.552C401.075 312.442 401.266 312.265 401.393 312.045C401.519 311.824 401.576 311.57 401.556 311.317C401.54 311.104 401.461 310.9 401.328 310.733C401.196 310.566 401.016 310.442 400.812 310.379C400.392 310.265 399.947 310.289 399.542 310.447Z" fill="#455A64"/>
<path d="M423.726 312.987C423.074 313.447 422.304 313.713 421.507 313.753C419.583 314.042 417.62 313.621 415.985 312.568C414.349 311.516 413.152 309.904 412.618 308.033C412.343 307.304 412.268 306.514 412.401 305.745C412.504 305.745 412.526 306.638 413.007 307.953C413.613 309.672 414.771 311.14 416.301 312.13C417.831 313.119 419.646 313.574 421.461 313.422C422.857 313.239 423.692 312.895 423.726 312.987Z" fill="#455A64"/>
<path d="M436.287 487.893C435.915 487.996 435.529 488.042 435.143 488.03L432.032 488.202L421.736 488.694L411.44 489.232L408.316 489.357C407.937 489.411 407.552 489.411 407.172 489.357C407.541 489.232 407.927 489.162 408.316 489.152C409.037 489.06 410.101 488.946 411.417 488.831C414.036 488.591 417.674 488.328 421.713 488.122C425.751 487.916 429.378 487.824 432.009 487.813C433.324 487.813 434.388 487.813 435.132 487.813C435.519 487.786 435.908 487.813 436.287 487.893Z" fill="#455A64"/>
<path d="M384.064 322.276C384.224 322.276 393.216 359.376 404.187 405.216C415.158 451.056 423.886 488.271 423.726 488.305C423.566 488.339 414.574 451.216 403.603 405.354C392.632 359.491 383.904 322.311 384.064 322.276Z" fill="#455A64"/>
<path d="M413.339 323.752C413.417 323.827 413.486 323.912 413.545 324.004L414.105 324.747L416.233 327.665L423.943 338.43L435.326 354.446L442.019 363.929C444.307 367.224 446.595 370.919 447.201 375.266C447.807 379.614 446.537 383.812 445.222 387.576C443.906 391.34 442.465 395 441.138 398.444C438.461 405.308 435.921 411.508 433.713 416.645C431.505 421.781 429.641 425.911 428.336 428.748L426.792 432.009L426.38 432.844C426.277 433.027 426.231 433.13 426.22 433.118C426.24 433.015 426.274 432.915 426.323 432.821C426.415 432.592 426.54 432.306 426.689 431.952L428.119 428.657C429.366 425.785 431.174 421.633 433.324 416.485C435.475 411.337 437.98 405.159 440.623 398.249C441.939 394.817 443.3 391.168 444.661 387.381C446.023 383.595 447.212 379.533 446.618 375.346C446.023 371.159 443.769 367.544 441.538 364.261L434.88 354.766L423.6 338.624L416.038 327.745L414.014 324.77C413.796 324.45 413.625 324.198 413.499 323.992C413.373 323.786 413.327 323.752 413.339 323.752Z" fill="#455A64"/>
<path d="M471.477 232.93L497.022 214.283L498.281 216.285L472.895 235.161L471.477 232.93Z" fill="#263238"/>
<path d="M477.792 232.358C477.792 232.358 481.224 223.435 481.99 221.536C482.757 219.637 484.061 216.33 484.553 216.262C485.045 216.193 486.841 216.468 484.495 222.142C482.15 227.816 487.253 224.35 487.253 224.35L492.172 220.826C492.172 220.826 496.061 232.449 493.853 235.95C492.116 238.57 490.164 241.042 488.019 243.34L477.792 232.358Z" fill="#FFBE9D"/>
<path d="M153.582 380.266C153.914 378.332 153.182 371.262 153.182 371.262C153.182 371.262 145.768 370.473 145.322 363.129C144.876 355.784 145.322 338.83 145.322 338.83L158.822 332.229L173.694 343.475L171.406 380.231L153.582 380.266Z" fill="#B78876"/>
<path d="M147.37 351.116C147.37 351.365 147.469 351.604 147.645 351.78C147.821 351.956 148.059 352.055 148.308 352.055C148.557 352.055 148.796 351.956 148.972 351.78C149.147 351.604 149.246 351.365 149.246 351.116C149.246 350.993 149.222 350.871 149.175 350.757C149.128 350.644 149.059 350.54 148.972 350.453C148.884 350.366 148.781 350.297 148.667 350.25C148.553 350.203 148.431 350.178 148.308 350.178C148.185 350.178 148.063 350.203 147.949 350.25C147.835 350.297 147.732 350.366 147.645 350.453C147.558 350.54 147.489 350.644 147.442 350.757C147.394 350.871 147.37 350.993 147.37 351.116Z" fill="#263238"/>
<path d="M145.997 350.441C146.112 350.556 146.81 349.972 147.816 349.915C148.823 349.858 149.589 350.35 149.704 350.213C149.818 350.075 149.624 349.927 149.292 349.698C148.845 349.405 148.315 349.264 147.782 349.297C147.248 349.334 146.74 349.538 146.329 349.881C146.032 350.144 145.929 350.384 145.997 350.441Z" fill="#263238"/>
<path d="M159.256 351.883C159.774 351.883 160.194 351.463 160.194 350.945C160.194 350.427 159.774 350.007 159.256 350.007C158.738 350.007 158.318 350.427 158.318 350.945C158.318 351.463 158.738 351.883 159.256 351.883Z" fill="#263238"/>
<path d="M156.934 350.259C157.06 350.384 157.746 349.789 158.764 349.744C159.783 349.698 160.538 350.178 160.641 350.041C160.744 349.904 160.572 349.755 160.24 349.526C159.793 349.235 159.263 349.094 158.73 349.126C158.195 349.158 157.685 349.363 157.277 349.709C156.968 349.972 156.877 350.213 156.934 350.259Z" fill="#263238"/>
<path d="M153.456 358.713C152.915 358.572 152.357 358.503 151.797 358.507C151.546 358.507 151.294 358.45 151.237 358.267C151.205 357.983 151.257 357.697 151.386 357.443L152.072 355.349C152.727 353.569 153.244 351.741 153.616 349.881C152.847 351.614 152.201 353.4 151.683 355.223C151.443 355.956 151.225 356.665 151.02 357.328C150.863 357.66 150.826 358.037 150.917 358.392C150.955 358.483 151.015 358.564 151.09 358.627C151.166 358.691 151.255 358.736 151.351 358.758C151.495 358.78 151.642 358.78 151.786 358.758C152.343 358.811 152.903 358.795 153.456 358.713Z" fill="#263238"/>
<path d="M156.808 359.674C155.327 360.611 153.646 361.187 151.9 361.355C152.272 361.869 152.806 362.243 153.417 362.415C154.027 362.588 154.678 362.549 155.264 362.305C157.426 361.401 156.808 359.674 156.808 359.674Z" fill="white"/>
<path d="M153.182 371.262C156.675 371.116 160.053 369.973 162.917 367.968C162.917 367.968 160.709 373.367 153.342 373.07L153.182 371.262Z" fill="#A36957"/>
<path d="M183.429 348.92C183.429 348.92 186.426 365.863 172.115 368.917L172.538 348.508L183.429 348.92Z" fill="#263238"/>
<path d="M182.96 345.168C182.067 341.542 180.396 338.154 178.064 335.238C180.123 336.096 181.496 336.954 181.782 336.679C182.068 336.405 181.541 335.89 180.638 335.123C179.464 334.163 178.122 333.43 176.679 332.961L176.005 332.778C176.949 332.402 177.811 331.846 178.544 331.142C179.422 330.32 180.028 329.251 180.284 328.076C180.539 326.901 180.431 325.676 179.974 324.564C179.458 323.619 178.672 322.848 177.717 322.349C176.762 321.85 175.68 321.645 174.609 321.761C173.545 321.912 172.53 322.31 171.648 322.924C170.766 323.538 170.04 324.351 169.529 325.296C169.283 325.749 169.08 326.224 168.923 326.715C168.958 325.902 169.042 325.092 169.175 324.29C169.632 321.464 170.685 319.348 170.513 319.256C169.428 320.693 168.752 322.397 168.557 324.187C168.557 324.461 168.488 324.724 168.454 324.988C168.23 324.256 167.954 323.541 167.63 322.848C166.933 321.372 166.269 320.56 166.075 320.686C165.674 320.881 166.978 323.981 167.516 328.168C166.229 327.74 164.89 327.489 163.535 327.424C161.041 327.424 156.9 326.28 151.042 330.982C149.059 332.248 147.345 333.893 145.997 335.821C144.062 338.654 142.971 341.979 142.851 345.408C142.816 346.438 142.881 347.468 143.046 348.485C143.081 348.861 143.177 349.228 143.332 349.572C143.446 349.572 143.115 347.982 143.332 345.431C143.461 343.539 143.881 341.679 144.579 339.917C143.707 342.967 143.901 346.223 145.128 349.149L158.227 347.101C157.38 344.23 157.998 339.676 158.398 337.446C160.686 348.142 169.896 353.279 169.896 353.279L183.681 351.117C183.486 349.87 183.257 346.289 182.96 345.168Z" fill="#263238"/>
<path d="M214.672 509.011C215.095 509.217 248.889 515.875 247.642 511.299C246.395 506.723 214.969 499.539 214.969 499.539L214.672 509.011Z" fill="#42D1C0"/>
<path d="M230.036 506.026C230.196 506.026 230.436 506.803 230.425 507.822C230.413 508.84 230.173 509.641 230.013 509.618C229.853 509.595 229.818 508.794 229.83 507.822C229.841 506.849 229.875 506.037 230.036 506.026Z" fill="#263238"/>
<path d="M228.239 505.408C228.388 505.408 228.686 506.312 228.571 507.501C228.457 508.691 228.034 509.56 227.885 509.503C227.736 509.446 227.885 508.554 227.976 507.444C228.068 506.334 228.068 505.431 228.239 505.408Z" fill="#263238"/>
<path d="M226.054 505.225C226.215 505.225 226.443 506.117 226.466 507.261C226.489 508.405 226.295 509.32 226.134 509.309C225.974 509.297 225.894 508.394 225.871 507.273C225.848 506.151 225.894 505.236 226.054 505.225Z" fill="#263238"/>
<path d="M221.936 501.919C222.113 501.91 222.291 501.929 222.462 501.976C222.805 501.976 223.309 502.136 223.949 502.285C225.242 502.559 227.107 503.005 229.383 503.635C231.66 504.264 234.36 505.053 237.311 506.06C238.787 506.563 240.354 507.078 241.887 507.753C243.549 508.423 245.076 509.388 246.395 510.601C246.6 510.766 246.768 510.973 246.887 511.208C246.959 511.374 246.97 511.561 246.918 511.735C246.866 511.909 246.753 512.059 246.601 512.157C246.16 512.386 245.666 512.493 245.171 512.466C244.29 512.535 243.42 512.569 242.574 512.592C240.869 512.592 239.222 512.592 237.655 512.466C234.531 512.272 231.74 511.883 229.406 511.517C227.073 511.151 225.196 510.785 223.904 510.521L222.417 510.213C222.239 510.188 222.065 510.138 221.902 510.064C222.585 510.086 223.266 510.163 223.938 510.293L229.464 511.093C231.752 511.414 234.589 511.757 237.689 511.929C239.245 512.009 240.869 512.054 242.562 512.009C243.397 512.009 244.267 511.951 245.125 511.883C245.518 511.905 245.911 511.831 246.269 511.665C246.372 511.585 246.383 511.54 246.349 511.437C246.254 511.281 246.134 511.142 245.994 511.025C244.724 509.862 243.255 508.936 241.659 508.291C240.126 507.627 238.57 507.147 237.083 506.575C234.143 505.556 231.466 504.71 229.212 504.035C226.958 503.36 225.105 502.891 223.835 502.502C223.19 502.349 222.556 502.154 221.936 501.919Z" fill="#263238"/>
<path d="M239.885 506.941C240.046 506.998 239.714 508.279 239.885 509.858C240.057 511.437 240.492 512.661 240.332 512.741C239.722 511.911 239.361 510.926 239.29 509.899C239.22 508.872 239.442 507.846 239.931 506.941H239.885Z" fill="#263238"/>
<path d="M102.96 502.319C102.491 502.319 68.3884 507.021 71.031 510.853C73.6736 514.686 105.751 511.322 105.751 511.322L102.96 502.319Z" fill="#42D1C0"/>
<path d="M89.3464 510.155C89.2092 510.224 88.7172 509.538 88.3969 508.577C88.0766 507.616 88.088 506.792 88.2024 506.792C88.3168 506.792 88.6486 507.513 88.9575 508.439C89.2664 509.366 89.4952 510.075 89.3464 510.155Z" fill="#263238"/>
<path d="M91.2569 510.144C91.1197 510.224 90.5362 509.435 90.2502 508.279C89.9642 507.124 90.0901 506.151 90.2502 506.151C90.4104 506.151 90.5591 507.055 90.8337 508.13C91.1082 509.206 91.4057 510.064 91.2569 510.144Z" fill="#263238"/>
<path d="M93.3733 509.606C93.2246 509.675 92.7212 508.886 92.3208 507.81C91.9204 506.735 91.806 505.808 91.9662 505.762C92.1263 505.717 92.4924 506.563 92.8814 507.604C93.2703 508.645 93.522 509.538 93.3733 509.606Z" fill="#263238"/>
<path d="M98.384 511.368C98.2193 511.432 98.0457 511.471 97.8692 511.482L96.3592 511.677C95.0436 511.837 93.1445 512.02 90.7879 512.169C88.4312 512.318 85.617 512.443 82.4939 512.466C80.9266 512.466 79.2907 512.466 77.5747 512.363C75.7868 512.285 74.0292 511.874 72.3924 511.151C72.1411 511.062 71.9112 510.922 71.7174 510.739C71.604 510.6 71.5421 510.426 71.5421 510.247C71.5421 510.068 71.604 509.894 71.7174 509.755C72.0542 509.389 72.4858 509.124 72.9644 508.988C73.7766 508.634 74.5774 508.325 75.3782 508.016C76.9798 507.433 78.5585 506.952 80.0686 506.529C83.0888 505.694 85.8572 505.156 88.1796 504.744C90.5019 504.332 92.4009 504.058 93.7051 503.886L95.2152 503.692C95.3895 503.664 95.5671 503.664 95.7414 503.692C95.0868 503.893 94.4174 504.042 93.7394 504.138L88.2596 505.179C85.9716 505.648 83.2032 506.231 80.2516 507.078C78.753 507.513 77.1972 507.993 75.6756 508.588C74.8863 508.897 74.0855 509.206 73.2847 509.549C72.9116 509.656 72.5701 509.853 72.2894 510.121C72.2208 510.235 72.2208 510.27 72.2894 510.361C72.4325 510.48 72.5951 510.573 72.7699 510.636C74.3453 511.317 76.0317 511.704 77.7463 511.78C79.4165 511.917 81.0639 511.906 82.6197 511.917C85.7314 511.917 88.5342 511.848 90.8908 511.757C93.2475 511.665 95.1465 511.528 96.4621 511.448C97.1003 511.379 97.7423 511.352 98.384 511.368Z" fill="#263238"/>
<path d="M79.7483 512.512C79.5653 512.512 79.4738 511.196 78.8331 509.744C78.1925 508.291 77.3459 507.284 77.4718 507.17C77.5976 507.055 78.7187 507.913 79.3823 509.458C79.892 510.391 80.023 511.485 79.7483 512.512Z" fill="#263238"/>
<path d="M208.7 460.918H191.345L127.282 462.576L108.978 460.208C106.129 459.579 104.253 459.316 103.646 459.51C101.188 460.535 99.0332 462.174 97.3888 464.269C90.4104 472.598 94.8033 485.433 105.305 488.293L115.167 490.97L93.5907 497.903L100.878 518.587C100.878 518.587 133.093 511.62 164.336 504.264L214.328 517.786L221.536 494.574L213.059 491.817C218.378 490.193 221.742 488.911 222.211 488.133C225.357 483.26 230.928 460.597 208.62 460.94" fill="#455A64"/>
<path opacity="0.2" d="M212.784 491.897L175.627 507.284L164.393 504.241L212.784 491.897Z" fill="black"/>
<path opacity="0.2" d="M115.327 462.656L162.894 476.282L199.125 463.926L115.327 462.656Z" fill="black"/>
<path d="M108.554 517.088C107.947 516.147 107.437 515.147 107.033 514.102C106.186 512.215 105.088 509.526 104.013 506.597C102.937 503.669 102.056 500.877 101.496 498.91C101.134 497.851 100.877 496.759 100.729 495.649C101.195 496.661 101.578 497.71 101.873 498.784C102.537 500.74 103.463 503.44 104.539 506.392C105.614 509.343 106.655 512.009 107.399 513.931C107.864 514.952 108.25 516.008 108.554 517.088Z" fill="#263238"/>
<path d="M223.229 468.628C223.136 468.684 223.036 468.726 222.931 468.754L222.039 469.086L218.607 470.298L205.92 474.611C195.155 478.203 180.26 483.065 163.752 488.248C147.244 493.43 132.235 497.949 121.356 501.152L108.451 504.881L104.939 505.854L104.013 506.094C103.909 506.127 103.801 506.146 103.692 506.151L104.001 506.037L104.905 505.739L108.337 504.653L121.184 500.74C132.041 497.445 147.016 492.858 163.512 487.676C180.008 482.493 194.926 477.7 205.714 474.211L218.504 470.081L221.993 468.937L222.897 468.662C223.005 468.635 223.117 468.623 223.229 468.628Z" fill="#263238"/>
<path d="M188.588 467.793C188.358 467.925 188.112 468.029 187.856 468.102L185.728 468.88C183.875 469.543 181.152 470.481 177.835 471.614C171.154 473.902 161.899 476.922 151.66 480.205C141.421 483.489 132.109 486.383 125.348 488.419C121.916 489.438 119.228 490.238 117.34 490.776L115.155 491.382C114.9 491.457 114.64 491.515 114.377 491.554C114.613 491.43 114.863 491.334 115.121 491.268L117.272 490.559L125.28 488.019L151.523 479.645L177.743 471.214L185.694 468.662L187.868 467.987C188.1 467.897 188.342 467.832 188.588 467.793Z" fill="#263238"/>
<path d="M162.654 476.201C162.654 476.362 151.98 473.456 138.905 469.715C125.829 465.974 115.281 462.851 115.327 462.657C115.372 462.462 126 465.402 139.065 469.143C152.129 472.884 162.7 476.041 162.654 476.201Z" fill="#263238"/>
<path d="M214.603 492.995C213.431 496.856 212.064 500.655 210.507 504.378C208.094 510.602 206.012 515.589 205.863 515.532C207.032 511.674 208.399 507.879 209.958 504.161C212.372 497.937 214.454 492.938 214.603 492.995Z" fill="#263238"/>
<path d="M210.141 502.582C206.986 502.037 203.865 501.308 200.795 500.397C197.69 499.663 194.634 498.739 191.643 497.629C194.799 498.17 197.92 498.9 200.989 499.814C204.094 500.547 207.151 501.472 210.141 502.582Z" fill="#263238"/>
<path d="M138.985 483.615C138.385 483.542 137.792 483.424 137.211 483.26L132.429 482.116C128.403 481.086 122.831 479.691 116.757 477.86C111.55 476.33 106.448 474.461 101.484 472.266C99.5967 471.397 98.0523 470.642 97.0684 470.081C96.521 469.823 95.9999 469.513 95.5126 469.154C96.0834 469.351 96.638 469.592 97.1714 469.875C98.2239 470.367 99.7454 471.019 101.656 471.877C106.647 473.951 111.745 475.757 116.928 477.288C122.991 479.119 128.54 480.572 132.544 481.704L137.269 483.065C137.858 483.191 138.432 483.375 138.985 483.615Z" fill="#263238"/>
<path d="M174.151 379.247H172.744L172.538 374.374L153.216 375.518C153.216 375.518 153.411 377.806 153.399 379.396C141.501 380.54 122.431 386.649 121.973 413.43L137.234 413.785C135.942 426.071 136.09 433.404 134.843 438.015C132.716 445.634 125.977 461.718 127.327 462.531C128.677 463.343 191.3 464.498 194.286 462.874C197.271 461.249 191.837 440.257 190.476 434.56C189.618 430.922 189.435 422.594 189.412 416.153L206.938 415.364C206.938 415.364 208.208 379.145 174.151 379.247Z" fill="#42D1C0"/>
<path d="M172.641 379.053C171.718 379.326 170.765 379.487 169.804 379.533C168.031 379.739 165.583 379.934 162.871 379.991C160.16 380.048 157.712 379.991 155.939 379.831C154.975 379.815 154.015 379.692 153.079 379.465C154.032 379.352 154.993 379.332 155.95 379.408C157.723 379.408 160.16 379.408 162.814 379.408C165.468 379.408 167.951 379.225 169.678 379.133C170.661 379.011 171.653 378.985 172.641 379.053Z" fill="#263238"/>
<path d="M156.728 375.358C156.9 375.358 157.026 376.296 157.026 377.451C157.026 378.607 156.9 379.556 156.728 379.556C156.556 379.556 156.431 378.618 156.431 377.451C156.431 376.285 156.511 375.358 156.728 375.358Z" fill="#263238"/>
<path d="M161.842 374.992C162.002 374.992 162.162 376.021 162.196 377.28C162.301 378.05 162.223 378.834 161.967 379.568C161.796 379.568 161.636 378.538 161.601 377.28C161.493 376.509 161.576 375.723 161.842 374.992Z" fill="#263238"/>
<path d="M167.173 374.809C167.333 374.809 167.562 375.815 167.585 377.097C167.607 378.378 167.436 379.385 167.264 379.385C167.015 378.649 166.921 377.87 166.99 377.097C167.024 375.861 167.024 374.82 167.173 374.809Z" fill="#263238"/>
<path d="M171.04 374.626C171.211 374.626 171.326 375.632 171.486 376.856C171.646 378.081 171.772 379.087 171.612 379.144C171.451 379.202 171.051 378.218 170.902 376.937C170.754 375.655 170.879 374.614 171.04 374.626Z" fill="#263238"/>
<path d="M139.648 413.499C139.34 411.609 139.225 409.692 139.305 407.779C139.184 405.869 139.268 403.951 139.557 402.059C139.859 403.95 139.974 405.866 139.9 407.779C140.006 409.689 139.922 411.605 139.648 413.499Z" fill="#263238"/>
<path d="M188.76 415.409C188.297 413.38 188.021 411.312 187.936 409.232C187.661 407.166 187.588 405.077 187.719 402.997C188.453 407.093 188.802 411.248 188.76 415.409Z" fill="#263238"/>
<path d="M139.648 413.499C138.776 413.614 137.894 413.641 137.017 413.579H130.713H124.399C123.525 413.641 122.647 413.615 121.779 413.499C122.631 413.28 123.507 413.168 124.387 413.167C126 413.041 128.242 412.95 130.713 412.961C133.184 412.973 135.427 413.053 137.04 413.178C137.919 413.182 138.794 413.289 139.648 413.499Z" fill="#263238"/>
<path d="M206.904 415.409C203.806 415.711 200.691 415.81 197.58 415.707C194.465 415.81 191.347 415.711 188.245 415.409C191.348 415.115 194.465 415.015 197.58 415.112C200.691 415.015 203.805 415.115 206.904 415.409Z" fill="#263238"/>
<path d="M206.137 415.558C206.137 415.558 210.713 458.264 197.626 462.462C184.539 466.66 158.73 446.778 158.73 446.778L166.166 431.723C166.166 431.723 183.326 443.643 187.033 440.955C190.739 438.266 188.806 415.558 188.806 415.558H206.137Z" fill="#B78876"/>
<path d="M122.191 413.499C122.191 413.499 117.535 455.77 130.611 459.979C143.686 464.189 169.507 444.284 169.507 444.284L162.059 429.229C162.059 429.229 144.796 440.268 141.215 437.477C139.145 435.853 139.088 413.716 139.088 413.716C133.001 413.453 127.362 413.19 122.191 413.499Z" fill="#B78876"/>
<path d="M197.992 422.308L189.309 464.864C189.309 464.864 135.953 464.453 135.404 464.292C134.855 464.132 129.684 422.308 129.684 422.308H197.992Z" fill="#263238"/>
<path d="M159.668 443.872C159.625 444.513 159.775 445.152 160.099 445.707C160.424 446.261 160.907 446.706 161.487 446.982C162.068 447.258 162.717 447.353 163.352 447.255C163.987 447.157 164.578 446.871 165.048 446.432C165.518 445.994 165.845 445.425 165.988 444.799C166.13 444.172 166.08 443.517 165.846 442.919C165.611 442.321 165.202 441.807 164.671 441.445C164.141 441.082 163.514 440.888 162.871 440.886C162.052 440.861 161.255 441.161 160.656 441.72C160.056 442.279 159.701 443.053 159.668 443.872Z" fill="white"/>
<path d="M170.879 350.499C171.362 350.2 171.912 350.026 172.479 349.992C173.046 349.958 173.613 350.065 174.128 350.304C174.786 350.835 175.22 351.595 175.341 352.432C175.494 353.109 175.486 353.813 175.317 354.487C175.148 355.161 174.823 355.785 174.368 356.31C173.894 356.817 173.26 357.144 172.572 357.238C171.885 357.332 171.186 357.186 170.593 356.825" fill="#B78876"/>
<path d="M172.252 355.658C172.252 355.567 172.618 355.509 173.041 355.189C173.321 355.008 173.547 354.756 173.696 354.458C173.844 354.16 173.911 353.828 173.888 353.496C173.855 353.168 173.738 352.854 173.548 352.586C173.357 352.317 173.1 352.102 172.801 351.963C172.321 351.734 171.955 351.746 171.943 351.654C171.932 351.563 172.309 351.391 172.95 351.551C173.368 351.675 173.74 351.922 174.017 352.259C174.294 352.596 174.464 353.008 174.504 353.443C174.545 353.877 174.455 354.314 174.245 354.696C174.035 355.079 173.716 355.39 173.327 355.589C172.664 355.841 172.252 355.784 172.252 355.658Z" fill="#A36957"/>
</svg>
