<svg width="24" height="24" viewBox="0 0 24 24" fill="none" xmlns="http://www.w3.org/2000/svg">
<path fill-rule="evenodd" clip-rule="evenodd" d="M10.5282 2.2833C10.9775 2.03035 11.4844 1.89746 12 1.89746C12.5156 1.89746 13.0225 2.03035 13.4718 2.2833C13.9211 2.53626 14.2976 2.90074 14.565 3.34158L14.5679 3.34633L23.0379 17.4863L23.046 17.5001C23.3079 17.9538 23.4465 18.4681 23.448 18.9919C23.4495 19.5158 23.3137 20.0308 23.0543 20.4859C22.7949 20.941 22.4209 21.3203 21.9694 21.5859C21.5179 21.8516 21.0048 21.9944 20.481 22.0001L20.47 22.0003L3.519 22.0002C2.99519 21.9944 2.48203 21.8516 2.03056 21.5859C1.57909 21.3203 1.20504 20.941 0.94564 20.4859C0.686236 20.0308 0.550517 19.5158 0.551983 18.9919C0.55345 18.4681 0.692052 17.9538 0.954 17.5001L0.962123 17.4863L9.43498 3.34157C9.70238 2.90073 10.0789 2.53626 10.5282 2.2833ZM12 3.89746C11.8281 3.89746 11.6592 3.94176 11.5094 4.02607C11.3603 4.11001 11.2353 4.23079 11.1462 4.37684L2.68268 18.506C2.5975 18.6558 2.55246 18.8251 2.55198 18.9975C2.55149 19.1721 2.59673 19.3438 2.68319 19.4955C2.76966 19.6472 2.89434 19.7736 3.04483 19.8622C3.19401 19.95 3.36338 19.9975 3.53639 20.0002H20.4636C20.6366 19.9975 20.806 19.95 20.9551 19.8622C21.1056 19.7736 21.2303 19.6472 21.3168 19.4955C21.4033 19.3438 21.4485 19.1721 21.448 18.9975C21.4475 18.8251 21.4025 18.6559 21.3173 18.5061L12.855 4.37883L12.8538 4.37684C12.7647 4.23079 12.6397 4.11001 12.4906 4.02607C12.3408 3.94176 12.1719 3.89746 12 3.89746ZM12 8C12.5523 8 13 8.44772 13 9V13C13 13.5523 12.5523 14 12 14C11.4477 14 11 13.5523 11 13V9C11 8.44772 11.4477 8 12 8ZM12 16C11.4477 16 11 16.4477 11 17C11 17.5523 11.4477 18 12 18H12.01C12.5623 18 13.01 17.5523 13.01 17C13.01 16.4477 12.5623 16 12.01 16H12Z" fill="#E3474B"/>
</svg>
