<svg width="24" height="24" viewBox="0 0 24 24" fill="currentcolor" xmlns="http://www.w3.org/2000/svg">
<path fill-rule="evenodd" clip-rule="evenodd" d="M19 3.17139C18.7599 3.17139 18.5221 3.21868 18.3003 3.31057C18.0784 3.40245 17.8769 3.53714 17.7071 3.70692L4.39488 17.0191L3.42521 20.5746L6.98067 19.6049L20.2929 6.29271C20.4627 6.12292 20.5974 5.92136 20.6892 5.69952C20.7811 5.47769 20.8284 5.23993 20.8284 4.99981C20.8284 4.7597 20.7811 4.52194 20.6892 4.30011C20.5974 4.07827 20.4627 3.87671 20.2929 3.70692C20.1231 3.53714 19.9215 3.40245 19.6997 3.31057C19.4779 3.21868 19.2401 3.17139 19 3.17139ZM17.5349 1.46281C17.9994 1.27041 18.4972 1.17139 19 1.17139C19.5027 1.17139 20.0006 1.27041 20.4651 1.46281C20.9296 1.6552 21.3516 1.9372 21.7071 2.29271C22.0626 2.64821 22.3446 3.07025 22.537 3.53474C22.7294 3.99923 22.8284 4.49706 22.8284 4.99981C22.8284 5.50257 22.7294 6.0004 22.537 6.46489C22.3446 6.92938 22.0626 7.35142 21.7071 7.70692L8.2071 21.2069C8.08404 21.33 7.93101 21.4188 7.76311 21.4646L2.26311 22.9646C1.9169 23.059 1.54664 22.9607 1.29289 22.7069C1.03914 22.4532 0.940807 22.0829 1.03523 21.7367L2.53523 16.2367C2.58102 16.0688 2.66983 15.9158 2.79289 15.7927L16.2929 2.29271C16.6484 1.9372 17.0704 1.6552 17.5349 1.46281Z" fill="inherit"/>
</svg>
