<svg width="20" height="21" viewBox="0 0 20 21" fill="none" xmlns="http://www.w3.org/2000/svg">
<g clip-path="url(#clip0_50_673)">
<path d="M9.99998 4.45833C11.475 4.45833 12.7958 4.96667 13.8375 5.95833L16.6917 3.10417C14.9583 1.49167 12.6958 0.5 9.99998 0.5C6.09165 0.5 2.71248 2.74167 1.06665 6.00833L4.39165 8.5875C5.17915 6.21667 7.39165 4.45833 9.99998 4.45833Z" fill="#EA4335"/>
<path d="M19.575 10.7291C19.575 10.075 19.5125 9.44165 19.4167 8.83331H10V12.5916H15.3917C15.15 13.825 14.45 14.875 13.4 15.5833L16.6208 18.0833C18.5 16.3416 19.575 13.7666 19.575 10.7291Z" fill="#4285F4"/>
<path d="M4.3875 12.4125C4.1875 11.8084 4.07083 11.1667 4.07083 10.5C4.07083 9.83336 4.18333 9.1917 4.3875 8.58753L1.0625 6.00836C0.383333 7.35836 0 8.88336 0 10.5C0 12.1167 0.383333 13.6417 1.06667 14.9917L4.3875 12.4125Z" fill="#FBBC05"/>
<path d="M10 20.5C12.7 20.5 14.9708 19.6125 16.6208 18.0792L13.4 15.5792C12.5042 16.1833 11.35 16.5375 10 16.5375C7.39167 16.5375 5.17917 14.7792 4.3875 12.4083L1.0625 14.9875C2.7125 18.2583 6.09167 20.5 10 20.5Z" fill="#34A853"/>
</g>
<defs>
<clipPath id="clip0_50_673">
<rect width="20" height="20" fill="white" transform="translate(0 0.5)"/>
</clipPath>
</defs>
</svg>
