<svg width="21" height="21" viewBox="0 0 21 21" fill="none" xmlns="http://www.w3.org/2000/svg">
<g clip-path="url(#clip0_56_447)">
<path d="M10.5 4.45833C11.975 4.45833 13.2958 4.96667 14.3375 5.95833L17.1917 3.10417C15.4583 1.49167 13.1958 0.5 10.5 0.5C6.59165 0.5 3.21248 2.74167 1.56665 6.00833L4.89165 8.5875C5.67915 6.21667 7.89165 4.45833 10.5 4.45833Z" fill="#EA4335"/>
<path d="M20.075 10.7292C20.075 10.075 20.0125 9.44168 19.9167 8.83334H10.5V12.5917H15.8917C15.65 13.825 14.95 14.875 13.9 15.5833L17.1208 18.0833C19 16.3417 20.075 13.7667 20.075 10.7292Z" fill="#4285F4"/>
<path d="M4.8875 12.4125C4.6875 11.8083 4.57083 11.1667 4.57083 10.5C4.57083 9.83333 4.68333 9.19166 4.8875 8.5875L1.5625 6.00833C0.883333 7.35833 0.5 8.88333 0.5 10.5C0.5 12.1167 0.883333 13.6417 1.56667 14.9917L4.8875 12.4125Z" fill="#FBBC05"/>
<path d="M10.5 20.5C13.2 20.5 15.4708 19.6125 17.1208 18.0792L13.9 15.5792C13.0042 16.1833 11.85 16.5375 10.5 16.5375C7.89167 16.5375 5.67917 14.7792 4.8875 12.4083L1.5625 14.9875C3.2125 18.2583 6.59167 20.5 10.5 20.5Z" fill="#34A853"/>
</g>
<defs>
<clipPath id="clip0_56_447">
<rect width="20" height="20" fill="white" transform="translate(0.5 0.5)"/>
</clipPath>
</defs>
</svg>
